<svg xmlns="http://www.w3.org/2000/svg" xmlns:xlink="http://www.w3.org/1999/xlink" version="1.1" width="612pt" height="792pt" viewBox="0 0 612 792">
<path transform="matrix(.75,0,0,.75,0,0)" d="M0 0H816V1056H0Z" fill="#ffffff"/>
<path transform="matrix(.75,0,0,.75,36,275.75627)" d="M24 0H714.6885V17.089844H24Z" fill="#ffffff"/>
<path transform="matrix(.75,0,0,.75,36,289.58836)" d="M48 0H588.1211V17.089844H48Z" fill="#ffffff"/>
<path transform="matrix(.75,0,0,.75,36,303.42048)" d="M24 0H708.4746V17.089844H24Z" fill="#ffffff"/>
<path transform="matrix(.75,0,0,.75,36,317.25254)" d="M48 0H303.06935V17.089844H48Z" fill="#ffffff"/>
<path transform="matrix(.75,0,0,.75,36,331.08464)" d="M24 0H668.7031V17.089844H24Z" fill="#ffffff"/>
<path transform="matrix(.75,0,0,.75,36,344.91676)" d="M48 0H380.39064V17.089844H48Z" fill="#ffffff"/>
<text fill="#1c4587" xml:space="preserve" transform="matrix(.75 0 0 .75 36 36)" font-size="26.666666" font-family="Calibri"><tspan y="25.885416" x="219.85309 235.27675 249.0343 257.9631 271.96806 286.02507 299.53523">Anthony</tspan></text>
<text fill="#1c4587" xml:space="preserve" transform="matrix(.75 0 0 .75 36 36)" font-size="26.666666" font-family="Calibri"><tspan y="25.885416" x="317.62709 334.8339 340.9513 354.95625">Nino</tspan></text>
<text fill="#1c4587" xml:space="preserve" transform="matrix(.75 0 0 .75 36 36)" font-size="26.666666" font-family="Calibri"><tspan y="25.885416" x="375.03956 391.4394">De</tspan></text>
<text fill="#1c4587" xml:space="preserve" transform="matrix(.75 0 0 .75 36 36)" font-size="26.666666" font-family="Calibri"><tspan y="25.885416" x="410.72874 427.54508 441.55003 452.07978 473.37355 486.14198">Guzman</tspan></text>
<text fill="#1c4587" xml:space="preserve" transform="matrix(.75 0 0 .75 36 62.34684)" font-size="14" font-family="Calibri"><tspan y="13.589844" x="279.5957 286.0217 293.3717 296.5777">Full</tspan></text>
<text fill="#1c4587" xml:space="preserve" transform="matrix(.75 0 0 .75 36 62.34684)" font-size="14" font-family="Calibri"><tspan y="13.589844" x="302.9746 309.4006 313.92579 320.63179 326.55378">Stack</tspan></text>
<text fill="#1c4587" xml:space="preserve" transform="matrix(.75 0 0 .75 36 62.34684)" font-size="14" font-family="Calibri"><tspan y="13.589844" x="336.08106 342.50706 349.88505 354.15504 358.84504 368.70899 375.41499 380.11134">Software</tspan></text>
<text fill="#1c4587" xml:space="preserve" transform="matrix(.75 0 0 .75 36 62.34684)" font-size="14" font-family="Calibri"><tspan y="13.589844" x="390.2422 397.0742 404.4242 411.0182 414.22419 421.5742 428.5462 435.5182">Engineer</tspan></text>
<text xml:space="preserve" transform="matrix(.75 0 0 .75 36 76.17894)" font-size="14" font-family="Calibri"><tspan y="13.589844" x="90.592288 97.29829 104.523929 109.21393 116.56393 123.941928 131.04737 137.38936 144.73937 147.94536 155.29537 162.67337 170.02338 176.99538 183.58937 190.93938 196.46938 207.65538 214.36138 221.71138 234.22739 240.82138 252.00739 258.71339 261.91938 265.12538 268.65339 274.49269 281.87068">anthonyninodeguzman@gmail.com</tspan></text>
<text xml:space="preserve" transform="matrix(.75 0 0 .75 36 76.17894)" font-size="14" font-family="Calibri"><tspan y="13.589844" x="296.22413">&#x2022;</tspan></text>
<text xml:space="preserve" transform="matrix(.75 0 0 .75 36 76.17894)" font-size="14" font-family="Calibri"><tspan y="13.589844" x="306.36183 312.9558 316.1618 320.8518 328.2018 335.55183 342.90184 346.42985 352.2583 359.6363 370.8223 375.74659 383.85258 391.07276 395.76277 403.11277 410.49076 417.5962 423.9382 432.9822 441.59223">github.com/AnthonyNDG</tspan></text>
<text xml:space="preserve" transform="matrix(.75 0 0 .75 36 76.17894)" font-size="14" font-family="Calibri"><tspan y="13.589844" x="453.58058">&#x2022;</tspan></text>
<text xml:space="preserve" transform="matrix(.75 0 0 .75 36 76.17894)" font-size="14" font-family="Calibri"><tspan y="13.589844" x="463.71827 466.92427 470.13026 477.48027 483.4126 490.38459 497.7346 500.94059 508.2906 511.8186 517.64016 525.0181 536.2041 541.6081 544.8141 552.16409 557.3364 564.0424 571.26809 575.95809 583.30807 590.68606 597.7915 603.8208 608.1048 615.4548 622.80477">linkedin.com/in/anthony-ndg</tspan></text>
<text fill="#1c4587" xml:space="preserve" transform="matrix(.75 0 0 .75 36 103.84312)" font-size="16" font-family="Calibri" font-weight="bold"><tspan y="15.53125" x="0 7.5680005 16.320002 20.592003 27.360003 34.128004">SKILLS</tspan></text>
<text xml:space="preserve" transform="matrix(.75 0 0 .75 36 119.65123)" font-size="14" font-family="Calibri"><tspan y="13.589844" x="0 8.722 15.540001 27.510003">HTML</tspan></text>
<text xml:space="preserve" transform="matrix(.75 0 0 .75 36 119.65123)" font-size="14" font-family="Calibri"><tspan y="13.589844" x="36.56543">&#x00b7;</tspan></text>
<text xml:space="preserve" transform="matrix(.75 0 0 .75 36 119.65123)" font-size="14" font-family="Calibri"><tspan y="13.589844" x="43.26465 50.502649 59.224649">PHP</tspan></text>
<text xml:space="preserve" transform="matrix(.75 0 0 .75 36 119.65123)" font-size="14" font-family="Calibri"><tspan y="13.589844" x="69.61719">&#x00b7;</tspan></text>
<text xml:space="preserve" transform="matrix(.75 0 0 .75 36 119.65123)" font-size="14" font-family="Calibri"><tspan y="13.589844" x="76.31641 83.778408 90.20441">CSS</tspan></text>
<text xml:space="preserve" transform="matrix(.75 0 0 .75 36 119.65123)" font-size="14" font-family="Calibri"><tspan y="13.589844" x="99.81152">&#x00b7;</tspan></text>
<text xml:space="preserve" transform="matrix(.75 0 0 .75 36 119.65123)" font-size="14" font-family="Calibri"><tspan y="13.589844" x="106.51074 112.84082 120.94682 127.372829">SASS</tspan></text>
<text xml:space="preserve" transform="matrix(.75 0 0 .75 36 119.65123)" font-size="14" font-family="Calibri"><tspan y="13.589844" x="136.97168">&#x00b7;</tspan></text>
<text xml:space="preserve" transform="matrix(.75 0 0 .75 36 119.65123)" font-size="14" font-family="Calibri"><tspan y="13.589844" x="143.6709 148.1369 154.6084 160.72657 167.43256 173.85855 179.78055 184.66655 187.87255 195.17285">JavaScript</tspan></text>
<text xml:space="preserve" transform="matrix(.75 0 0 .75 36 119.65123)" font-size="14" font-family="Calibri"><tspan y="13.589844" x="203.02735">&#x00b7;</tspan></text>
<text xml:space="preserve" transform="matrix(.75 0 0 .75 36 119.65123)" font-size="14" font-family="Calibri"><tspan y="13.589844" x="209.72657 217.08203 224.05403 230.76003 236.68202 241.37203 244.90003 248.24602">React.js</tspan></text>
<text xml:space="preserve" transform="matrix(.75 0 0 .75 36 119.65123)" font-size="14" font-family="Calibri"><tspan y="13.589844" x="256.8877">&#x00b7;</tspan></text>
<text xml:space="preserve" transform="matrix(.75 0 0 .75 36 119.65123)" font-size="14" font-family="Calibri"><tspan y="13.589844" x="263.5869 272.63093 280.0089 287.35893 294.33094 297.85896 301.20497">Node.js</tspan></text>
<text xml:space="preserve" transform="matrix(.75 0 0 .75 36 119.65123)" font-size="14" font-family="Calibri"><tspan y="13.589844" x="309.85255">&#x00b7;</tspan></text>
<text xml:space="preserve" transform="matrix(.75 0 0 .75 36 119.65123)" font-size="14" font-family="Calibri"><tspan y="13.589844" x="316.55177 322.97776 332.39976">SQL</tspan></text>
<text xml:space="preserve" transform="matrix(.75 0 0 .75 36 119.65123)" font-size="14" font-family="Calibri"><tspan y="13.589844" x="341.45509">&#x00b7;</tspan></text>
<text xml:space="preserve" transform="matrix(.75 0 0 .75 36 119.65123)" font-size="14" font-family="Calibri"><tspan y="13.589844" x="348.1543 352.6203 359.0918 365.20997">Java</tspan></text>
<text xml:space="preserve" transform="matrix(.75 0 0 .75 36 119.65123)" font-size="14" font-family="Calibri"><tspan y="13.589844" x="375.08106">&#x00b7;</tspan></text>
<text xml:space="preserve" transform="matrix(.75 0 0 .75 36 119.65123)" font-size="14" font-family="Calibri"><tspan y="13.589844" x="381.78028 389.09474 395.5 400.19 407.54 414.918">Python</tspan></text>
<text xml:space="preserve" transform="matrix(.75 0 0 .75 36 119.65123)" font-size="14" font-family="Calibri"><tspan y="13.589844" x="425.44825">&#x00b7;</tspan></text>
<text xml:space="preserve" transform="matrix(.75 0 0 .75 36 119.65123)" font-size="14" font-family="Calibri"><tspan y="13.589844" x="432.14747 439.60948 446.6875">C++</tspan></text>
<text xml:space="preserve" transform="matrix(.75 0 0 .75 36 119.65123)" font-size="14" font-family="Calibri"><tspan y="13.589844" x="456.8252">&#x00b7;</tspan></text>
<text xml:space="preserve" transform="matrix(.75 0 0 .75 36 119.65123)" font-size="14" font-family="Calibri"><tspan y="13.589844" x="463.5244 471.1264 477.8252 484.1621 490.9801 495.2501 502.6001">RESTful</tspan></text>
<text xml:space="preserve" transform="matrix(.75 0 0 .75 36 119.65123)" font-size="14" font-family="Calibri"><tspan y="13.589844" x="508.99024 517.09628 524.3342">API</tspan></text>
<text xml:space="preserve" transform="matrix(.75 0 0 .75 36 119.65123)" font-size="14" font-family="Calibri"><tspan y="13.589844" x="531.0156">&#x00b7;</tspan></text>
<text xml:space="preserve" transform="matrix(.75 0 0 .75 36 119.65123)" font-size="14" font-family="Calibri"><tspan y="13.589844" x="537.71487 545.26858 557.6553">AWS</tspan></text>
<text xml:space="preserve" transform="matrix(.75 0 0 .75 36 119.65123)" font-size="14" font-family="Calibri"><tspan y="13.589844" x="567.2529">&#x00b7;</tspan></text>
<text xml:space="preserve" transform="matrix(.75 0 0 .75 36 119.65123)" font-size="14" font-family="Calibri"><tspan y="13.589844" x="573.95217 581.00686 588.3568 595.7068 602.6788 607.56478 614.91476 621.81057 626.3496 633.3216">Kubernetes</tspan></text>
<text xml:space="preserve" transform="matrix(.75 0 0 .75 36 119.65123)" font-size="14" font-family="Calibri"><tspan y="13.589844" x="641.95608">&#x00b7;</tspan></text>
<text xml:space="preserve" transform="matrix(.75 0 0 .75 36 119.65123)" font-size="14" font-family="Calibri"><tspan y="13.589844" x="648.6553 657.26528 664.64328 670.56527 676.4844 683.45639">Docker</tspan></text>
<text xml:space="preserve" transform="matrix(.75 0 0 .75 36 119.65123)" font-size="14" font-family="Calibri"><tspan y="13.589844" x="691.4961">&#x00b7;</tspan></text>
<text xml:space="preserve" transform="matrix(.75 0 0 .75 36 133.4833)" font-size="14" font-family="Calibri"><tspan y="13.589844" x="0 6.426 9.632 14.341797 21.313797 28.663798 35.369798 40.843797">Firebase</tspan></text>
<text fill="#1c4587" xml:space="preserve" transform="matrix(.75 0 0 .75 36 161.1475)" font-size="16" font-family="Calibri" font-weight="bold"><tspan y="15.53125" x="0 7.8080008 17.888 28.336003 36.800004 45.25 53.170003 57.442 68.258">EDUCATION</tspan></text>
<text xml:space="preserve" transform="matrix(.75 0 0 .75 36 176.95561)" font-size="14" font-family="Calibri" font-weight="bold"><tspan y="13.589844" x="0 7.4060008 16.548003 25.774003">CUNY</tspan></text>
<text xml:space="preserve" transform="matrix(.75 0 0 .75 36 176.95561)" font-size="14" font-family="Calibri" font-weight="bold"><tspan y="13.589844" x="36.20996 45.81396 53.331964 60.373964 67.41596 74.93396">Queens</tspan></text>
<text xml:space="preserve" transform="matrix(.75 0 0 .75 36 176.95561)" font-size="14" font-family="Calibri" font-weight="bold"><tspan y="13.589844" x="83.68555 91.091548 98.62354 102.06754 105.51154 112.55354 119.03418">College</tspan></text>
<text xml:space="preserve" transform="matrix(.75 0 0 .75 36 176.95561)" font-size="14" font-family="Calibri"><tspan y="13.589844" x="129.24707">|</tspan></text>
<text xml:space="preserve" transform="matrix(.75 0 0 .75 36 176.95561)" font-size="14" font-family="Calibri"><tspan y="13.589844" x="138.8584 146.4744 150.0024 156.42839">B.S.</tspan></text>
<text xml:space="preserve" transform="matrix(.75 0 0 .75 36 176.95561)" font-size="14" font-family="Calibri"><tspan y="13.589844" x="163.13965 166.34564">in</tspan></text>
<text xml:space="preserve" transform="matrix(.75 0 0 .75 36 176.95561)" font-size="14" font-family="Calibri"><tspan y="13.589844" x="176.87305 184.33506 191.71306 202.89907 210.24907 217.59908 222.1543 229.1263">Computer</tspan></text>
<text xml:space="preserve" transform="matrix(.75 0 0 .75 36 176.95561)" font-size="14" font-family="Calibri"><tspan y="13.589844" x="237.16602 243.59201 249.514 252.72 259.69203 267.04203 272.96403">Science</tspan></text>
<text xml:space="preserve" transform="matrix(.75 0 0 .75 36 176.95561)" font-size="14" font-family="Calibri"><tspan y="13.589844" x="663.6992 675.6692 682.11526">May</tspan></text>
<text xml:space="preserve" transform="matrix(.75 0 0 .75 36 176.95561)" font-size="14" font-family="Calibri"><tspan y="13.589844" x="691.6172 698.7152 705.81326 712.91128">2023</tspan></text>
<text xml:space="preserve" transform="matrix(.75 0 0 .75 36 190.7877)" font-size="14" font-family="ArialMT"><tspan y="13.589844" x="24">&#x25cf;</tspan></text>
<text xml:space="preserve" transform="matrix(.75 0 0 .75 36 190.7877)" font-size="14" font-family="Calibri"><tspan y="13.589844" x="48 55.35547 62.32747 65.53347 72.43164 78.549808 85.255809 92.481449">Relevant</tspan></text>
<text xml:space="preserve" transform="matrix(.75 0 0 .75 36 190.7877)" font-size="14" font-family="Calibri"><tspan y="13.589844" x="100.33594 107.797939 115.175937 122.52593 127.180667 132.65467 139.55371 149.43164 156.80965 161.69565 168.06565">Coursework:</tspan></text>
<text xml:space="preserve" transform="matrix(.75 0 0 .75 36 190.7877)" font-size="14" font-family="Calibri"><tspan y="13.589844" x="174.9707 186.9407 193.6467 199.5687 206.9187 210.1247 217.4747">Machine</tspan></text>
<text xml:space="preserve" transform="matrix(.75 0 0 .75 36 190.7877)" font-size="14" font-family="Calibri"><tspan y="13.589844" x="227.6211 233.5011 240.4731 247.1791 252.0651 259.4151 262.6211 269.9711 276.73048">Learning,</tspan></text>
<text xml:space="preserve" transform="matrix(.75 0 0 .75 36 190.7877)" font-size="14" font-family="Calibri"><tspan y="13.589844" x="283.38868 286.9167 294.1416 298.68067 305.65266 310.53865 317.88865 324.77345">Internet</tspan></text>
<text xml:space="preserve" transform="matrix(.75 0 0 .75 36 190.7877)" font-size="14" font-family="Calibri"><tspan y="13.589844" x="332.62794">&#x0026;</tspan></text>
<text xml:space="preserve" transform="matrix(.75 0 0 .75 36 190.7877)" font-size="14" font-family="Calibri"><tspan y="13.589844" x="345.34278 357.28517 364.25715">Web</tspan></text>
<text xml:space="preserve" transform="matrix(.75 0 0 .75 36 190.7877)" font-size="14" font-family="Calibri"><tspan y="13.589844" x="374.77149 380.3496 387.3216 393.2436 400.5936 407.9436 415.3216 418.5276 425.90559 432.49958 435.70558 442.67756 448.15156">Technologies,</tspan></text>
<text xml:space="preserve" transform="matrix(.75 0 0 .75 36 190.7877)" font-size="14" font-family="Calibri"><tspan y="13.589844" x="454.82716 464.09516 471.44517 478.41719 483.01173 489.5879 494.2779 497.4839 504.8339">Operating</tspan></text>
<text xml:space="preserve" transform="matrix(.75 0 0 .75 36 190.7877)" font-size="14" font-family="Calibri"><tspan y="13.589844" x="514.6006 520.8623 527.06936 532.3877 536.92678 543.89877 555.0847 560.5587">Systems,</tspan></text>
<text xml:space="preserve" transform="matrix(.75 0 0 .75 36 190.7877)" font-size="14" font-family="Calibri"><tspan y="13.589844" x="567.20999 575.81997 579.02597 584.3545 589.0445 593.9305 597.1365 604.48648 611.8364 616.3877 623.3597">Distributed</tspan></text>
<text xml:space="preserve" transform="matrix(.75 0 0 .75 36 190.7877)" font-size="14" font-family="Calibri"><tspan y="13.589844" x="633.874 640.13577 646.3428 651.66116 656.2002 663.1722 674.35818 679.83218">Systems,</tspan></text>
<text xml:space="preserve" transform="matrix(.75 0 0 .75 36 204.61978)" font-size="14" font-family="Calibri"><tspan y="13.589844" x="48 56.61 59.816 65.29 71.212 75.91797 82.80859 87.34766">Discrete</tspan></text>
<text xml:space="preserve" transform="matrix(.75 0 0 .75 36 204.61978)" font-size="14" font-family="Calibri"><tspan y="13.589844" x="97.478519 103.90452 108.59452 113.48052 120.83052 126.75252 131.44252 138.79253 143.49805 150.47005 155.94405">Structures,</tspan></text>
<text xml:space="preserve" transform="matrix(.75 0 0 .75 36 204.61978)" font-size="14" font-family="Calibri"><tspan y="13.589844" x="162.59766 170.05966 177.43767 188.62368 195.97368 203.32369 207.8584 214.43457 219.12458 222.33057 229.70858">Computation</tspan></text>
<text xml:space="preserve" transform="matrix(.75 0 0 .75 36 204.61978)" font-size="14" font-family="Calibri"><tspan y="13.589844" x="240.24024 247.05823 254.40824 261.38026 268.75825 273.71583 279.0547">Theory,</tspan></text>
<text xml:space="preserve" transform="matrix(.75 0 0 .75 36 204.61978)" font-size="14" font-family="Calibri"><tspan y="13.589844" x="285.7129 294.32289 300.90235 305.4209">Data</tspan></text>
<text xml:space="preserve" transform="matrix(.75 0 0 .75 36 204.61978)" font-size="14" font-family="Calibri"><tspan y="13.589844" x="315.292">&#x0026;</tspan></text>
<text xml:space="preserve" transform="matrix(.75 0 0 .75 36 204.61978)" font-size="14" font-family="Calibri"><tspan y="13.589844" x="328.00685 336.11283 343.46284 350.16883 353.37483 359.58888 365.06288 368.26887">Analysis</tspan></text>
<text xml:space="preserve" transform="matrix(.75 0 0 .75 36 204.61978)" font-size="14" font-family="Calibri"><tspan y="13.589844" x="376.91798 384.29597">of</tspan></text>
<text xml:space="preserve" transform="matrix(.75 0 0 .75 36 204.61978)" font-size="14" font-family="Calibri"><tspan y="13.589844" x="391.73829 399.84428 403.05027 409.5459 416.9239 421.80989 425.01588 429.70588 437.05589 448.24189 453.71589">Algorithms,</tspan></text>
<text xml:space="preserve" transform="matrix(.75 0 0 .75 36 204.61978)" font-size="14" font-family="Calibri"><tspan y="13.589844" x="460.38478 468.99476 472.20075 477.67475 483.59675 488.30274 495.19337 499.73243">Discrete</tspan></text>
<text xml:space="preserve" transform="matrix(.75 0 0 .75 36 204.61978)" font-size="14" font-family="Calibri"><tspan y="13.589844" x="509.86329 521.83328 528.4092 533.0992 540.44918 547.42117 558.6071 565.1797 569.8697 573.0757 578.9977 584.4717">Mathematics,</tspan></text>
<text xml:space="preserve" transform="matrix(.75 0 0 .75 36 204.61978)" font-size="14" font-family="Calibri"><tspan y="13.589844" x="591.13577 598.5977 605.9757 617.1617 624.51168 631.86166 636.417 643.389">Computer</tspan></text>
<text xml:space="preserve" transform="matrix(.75 0 0 .75 36 204.61978)" font-size="14" font-family="Calibri"><tspan y="13.589844" x="651.4287 659.3667 662.5727 668.0467 671.2527 678.6307">Vision</tspan></text>
<text fill="#1c4587" xml:space="preserve" transform="matrix(.75 0 0 .75 36 232.28398)" font-size="16" font-family="Calibri" font-weight="bold"><tspan y="15.53125" x="0 7.8080008 16.624 25.136002 32.944 41.952 46.224 54.031999 64.576 73.03999">EXPERIENCE</tspan></text>
<text xml:space="preserve" transform="matrix(.75 0 0 .75 36 248.09207)" font-size="14" font-family="Calibri" font-weight="bold"><tspan y="13.589844" x="0 6.622 14.154001 18.578001 23.436 33.708009 40.62401 45.438478">Software</tspan></text>
<text xml:space="preserve" transform="matrix(.75 0 0 .75 36 248.09207)" font-size="14" font-family="Calibri" font-weight="bold"><tspan y="13.589844" x="55.651369 62.483369 70.001369 76.63737 80.08137 87.599369 94.641368 101.683368">Engineer</tspan></text>
<text xml:space="preserve" transform="matrix(.75 0 0 .75 36 248.09207)" font-size="14" font-family="Calibri" font-weight="bold"><tspan y="13.589844" x="109.819339 116.04004 123.08204 126.52604 129.97003 137.46387 147.80664 153.39264 160.91065 164.35465">Fellowship</tspan></text>
<text xml:space="preserve" transform="matrix(.75 0 0 .75 36 248.09207)" font-size="14" font-family="Calibri"><tspan y="13.589844" x="586.0635 598.03347 604.73947 609.41506 615.33706">March</tspan></text>
<text xml:space="preserve" transform="matrix(.75 0 0 .75 36 248.09207)" font-size="14" font-family="Calibri"><tspan y="13.589844" x="625.85549 632.9535 640.0515 647.14956 654.24758">2023-</tspan></text>
<text xml:space="preserve" transform="matrix(.75 0 0 .75 36 248.09207)" font-size="14" font-family="Calibri"><tspan y="13.589844" x="661.68948 669.7955 677.14547 682.03146 685.2374">April</tspan></text>
<text xml:space="preserve" transform="matrix(.75 0 0 .75 36 248.09207)" font-size="14" font-family="Calibri"><tspan y="13.589844" x="691.6172 698.7152 705.81326 712.91128">2023</tspan></text>
<text fill="#1c4587" xml:space="preserve" transform="matrix(.75 0 0 .75 36 261.9242)" font-size="14" font-family="Calibri" font-style="italic"><tspan y="13.589844" x="0 6.8180005 14.014">The</tspan></text>
<text fill="#1c4587" xml:space="preserve" transform="matrix(.75 0 0 .75 36 261.9242)" font-size="14" font-family="Calibri" font-style="italic"><tspan y="13.589844" x="23.871094 32.593095 39.285097 46.481096 53.677095 58.966798 63.464845 70.66084 75.462848 80.00098 86.69298">Headstarter</tspan></text>
<text fill="#1c4587" xml:space="preserve" transform="matrix(.75 0 0 .75 36 261.9242)" font-size="14" font-family="Calibri"><tspan y="13.589844" x="94.65039">|</tspan></text>
<text fill="#1c4587" xml:space="preserve" transform="matrix(.75 0 0 .75 36 261.9242)" font-size="14" font-family="Calibri"><tspan y="13.589844" x="104.26172 113.683719 121.033718 128.0057 134.9777 142.32772 147.80171">Queens,</tspan></text>
<text fill="#1c4587" xml:space="preserve" transform="matrix(.75 0 0 .75 36 261.9242)" font-size="14" font-family="Calibri"><tspan y="13.589844" x="154.45801 163.50202">NY</tspan></text>
<text xml:space="preserve" transform="matrix(.75 0 0 .75 36 275.75627)" font-size="14" font-family="ArialMT"><tspan y="13.589844" x="24">&#x25cf;</tspan></text>
<text xml:space="preserve" transform="matrix(.75 0 0 .75 36 275.75627)" font-size="14" font-family="Calibri"><tspan y="13.589844" x="48 55.238 62.587999 69.937999 73.144 76.35 81.824 89.173999 96.145999">Published</tspan></text>
<text xml:space="preserve" transform="matrix(.75 0 0 .75 36 275.75627)" font-size="14" font-family="Calibri"><tspan y="13.589844" x="106.68652">a</tspan></text>
<text xml:space="preserve" transform="matrix(.75 0 0 .75 36 275.75627)" font-size="14" font-family="Calibri"><tspan y="13.589844" x="116.55762 122.98362 130.33362 133.53961">Full</tspan></text>
<text xml:space="preserve" transform="matrix(.75 0 0 .75 36 275.75627)" font-size="14" font-family="Calibri"><tspan y="13.589844" x="139.93653 146.36252 150.8877 157.59369 163.51569">Stack</tspan></text>
<text xml:space="preserve" transform="matrix(.75 0 0 .75 36 275.75627)" font-size="14" font-family="Calibri"><tspan y="13.589844" x="173.04297 184.98535 191.95735">Web</tspan></text>
<text xml:space="preserve" transform="matrix(.75 0 0 .75 36 275.75627)" font-size="14" font-family="Calibri"><tspan y="13.589844" x="202.47168 210.57769 217.92769">App</tspan></text>
<text xml:space="preserve" transform="matrix(.75 0 0 .75 36 275.75627)" font-size="14" font-family="Calibri"><tspan y="13.589844" x="228.44824 238.45824 241.66423 246.35424">with</tspan></text>
<text xml:space="preserve" transform="matrix(.75 0 0 .75 36 275.75627)" font-size="14" font-family="Calibri"><tspan y="13.589844" x="256.8789">a</tspan></text>
<text xml:space="preserve" transform="matrix(.75 0 0 .75 36 275.75627)" font-size="14" font-family="Calibri"><tspan y="13.589844" x="266.75 271.28907 278.26106 284.96705">team</tspan></text>
<text xml:space="preserve" transform="matrix(.75 0 0 .75 36 275.75627)" font-size="14" font-family="Calibri"><tspan y="13.589844" x="299.30958 306.68757">of</tspan></text>
<text xml:space="preserve" transform="matrix(.75 0 0 .75 36 275.75627)" font-size="14" font-family="Calibri"><tspan y="13.589844" x="314.12989">4</tspan></text>
<text xml:space="preserve" transform="matrix(.75 0 0 .75 36 275.75627)" font-size="14" font-family="Calibri"><tspan y="13.589844" x="324.39064 331.74064 337.21464 340.42063 347.77064">using</tspan></text>
<text xml:space="preserve" transform="matrix(.75 0 0 .75 36 275.75627)" font-size="14" font-family="Calibri"><tspan y="13.589844" x="357.54493 364.9004 371.87239 378.57838 384.50038 389.19038">React,</tspan></text>
<text xml:space="preserve" transform="matrix(.75 0 0 .75 36 275.75627)" font-size="14" font-family="Calibri"><tspan y="13.589844" x="395.83985 403.94584 410.43458 417.81257 422.41114 429.11714">Agora,</tspan></text>
<text xml:space="preserve" transform="matrix(.75 0 0 .75 36 275.75627)" font-size="14" font-family="Calibri"><tspan y="13.589844" x="435.7754 442.48139 449.8314">and</tspan></text>
<text xml:space="preserve" transform="matrix(.75 0 0 .75 36 275.75627)" font-size="14" font-family="Calibri"><tspan y="13.589844" x="460.35743 466.78343 469.9894 474.69923 481.6712 489.0212 495.7272 501.2012">Firebase</tspan></text>
<text xml:space="preserve" transform="matrix(.75 0 0 .75 36 275.75627)" font-size="14" font-family="Calibri"><tspan y="13.589844" x="511.333 515.8721 522.84408 528.76608 536.116 543.466 550.844 554.05 561.428 568.022 571.22799 578.19998">technologies</tspan></text>
<text xml:space="preserve" transform="matrix(.75 0 0 .75 36 275.75627)" font-size="14" font-family="Calibri"><tspan y="13.589844" x="586.85647 591.4092">to</tspan></text>
<text xml:space="preserve" transform="matrix(.75 0 0 .75 36 275.75627)" font-size="14" font-family="Calibri"><tspan y="13.589844" x="601.95706 608.663 611.869 615.075 622.417">allow</tspan></text>
<text xml:space="preserve" transform="matrix(.75 0 0 .75 36 275.75627)" font-size="14" font-family="Calibri"><tspan y="13.589844" x="635.58987 642.9398 648.4138 655.3858 660.0283">users</tspan></text>
<text xml:space="preserve" transform="matrix(.75 0 0 .75 36 275.75627)" font-size="14" font-family="Calibri"><tspan y="13.589844" x="668.66897 673.2217">to</tspan></text>
<text xml:space="preserve" transform="matrix(.75 0 0 .75 36 275.75627)" font-size="14" font-family="Calibri"><tspan y="13.589844" x="683.76956 686.9755 694.3535">log</tspan></text>
<text xml:space="preserve" transform="matrix(.75 0 0 .75 36 275.75627)" font-size="14" font-family="Calibri"><tspan y="13.589844" x="704.1201 707.3261">in</tspan></text>
<text xml:space="preserve" transform="matrix(.75 0 0 .75 36 289.58836)" font-size="14" font-family="Calibri"><tspan y="13.589844" x="48">a</tspan></text>
<text xml:space="preserve" transform="matrix(.75 0 0 .75 36 289.58836)" font-size="14" font-family="Calibri"><tspan y="13.589844" x="57.871095 66.481098 73.06055 77.5791 84.2851 91.6351 98.3411 103.8151">Database</tspan></text>
<text xml:space="preserve" transform="matrix(.75 0 0 .75 36 289.58836)" font-size="14" font-family="Calibri"><tspan y="13.589844" x="113.953128 118.50586">to</tspan></text>
<text xml:space="preserve" transform="matrix(.75 0 0 .75 36 289.58836)" font-size="14" font-family="Calibri"><tspan y="13.589844" x="129.05371 136.43172 141.12598 147.45606 154.16205 161.51206 164.71805 169.94629">organize</tspan></text>
<text xml:space="preserve" transform="matrix(.75 0 0 .75 36 289.58836)" font-size="14" font-family="Calibri"><tspan y="13.589844" x="180.07715 186.97461 193.16114 200.13314 207.35254 212.04254 217.51654">events,</tspan></text>
<text xml:space="preserve" transform="matrix(.75 0 0 .75 36 289.58836)" font-size="14" font-family="Calibri"><tspan y="13.589844" x="224.17578 230.88178 236.80377 242.72577 249.69777 255.17177">access</tspan></text>
<text xml:space="preserve" transform="matrix(.75 0 0 .75 36 289.58836)" font-size="14" font-family="Calibri"><tspan y="13.589844" x="263.8037 268.4937 275.84373 282.81575 286.02174">their</tspan></text>
<text xml:space="preserve" transform="matrix(.75 0 0 .75 36 289.58836)" font-size="14" font-family="Calibri"><tspan y="13.589844" x="294.07325 301.42326 308.39527 313.03614 318.51014 325.88813 333.23814 339.94413 343.15013 346.3561 351.59767 358.56965">personalized</tspan></text>
<text xml:space="preserve" transform="matrix(.75 0 0 .75 36 289.58836)" font-size="14" font-family="Calibri"><tspan y="13.589844" x="369.08399 376.434 381.09474 388.47273 392.7427 395.9487 399.1547 406.1267">profile,</tspan></text>
<text xml:space="preserve" transform="matrix(.75 0 0 .75 36 289.58836)" font-size="14" font-family="Calibri"><tspan y="13.589844" x="412.7998 419.5058 426.8558">and</tspan></text>
<text xml:space="preserve" transform="matrix(.75 0 0 .75 36 289.58836)" font-size="14" font-family="Calibri"><tspan y="13.589844" x="437.38185 442.85585 449.82783 456.5338 467.71983 470.9258 477.89784 483.37184 488.84584 492.05183">seamlessly</tspan></text>
<text xml:space="preserve" transform="matrix(.75 0 0 .75 36 289.58836)" font-size="14" font-family="Calibri"><tspan y="13.589844" x="501.55763 504.90364 512.2816 515.4876">join</tspan></text>
<text xml:space="preserve" transform="matrix(.75 0 0 .75 36 289.58836)" font-size="14" font-family="Calibri"><tspan y="13.589844" x="526.02346 533.9614 537.1674 544.5174 551.4894">Video</tspan></text>
<text xml:space="preserve" transform="matrix(.75 0 0 .75 36 289.58836)" font-size="14" font-family="Calibri"><tspan y="13.589844" x="562.0488 569.5108 576.2168 579.4228 582.6288">Calls</tspan></text>
<text xml:space="preserve" transform="matrix(.75 0 0 .75 36 303.42048)" font-size="14" font-family="ArialMT"><tspan y="13.589844" x="24">&#x25cf;</tspan></text>
<text xml:space="preserve" transform="matrix(.75 0 0 .75 36 303.42048)" font-size="14" font-family="Calibri"><tspan y="13.589844" x="48 56.61 63.510744 69.697269 76.669269 79.87527 87.253269 94.603267 101.575267">Developed</tspan></text>
<text xml:space="preserve" transform="matrix(.75 0 0 .75 36 303.42048)" font-size="14" font-family="Calibri"><tspan y="13.589844" x="112.100589 118.80659">an</tspan></text>
<text xml:space="preserve" transform="matrix(.75 0 0 .75 36 303.42048)" font-size="14" font-family="Calibri"><tspan y="13.589844" x="129.32715 136.29915 147.48516 154.19115 157.39714">email</tspan></text>
<text xml:space="preserve" transform="matrix(.75 0 0 .75 36 303.42048)" font-size="14" font-family="Calibri"><tspan y="13.589844" x="163.77344 169.57715 176.95516 188.14116 199.32717 206.67717 214.02718 217.23317 223.05469 229.63086 234.32086 237.52686 244.90486">communication</tspan></text>
<text xml:space="preserve" transform="matrix(.75 0 0 .75 36 303.42048)" font-size="14" font-family="Calibri"><tspan y="13.589844" x="255.43653 260.65919 266.8662 272.18458 276.72364 283.69563">system</tspan></text>
<text xml:space="preserve" transform="matrix(.75 0 0 .75 36 303.42048)" font-size="14" font-family="Calibri"><tspan y="13.589844" x="298.0381 305.3881 310.0781 313.2841 316.49009 319.69609 325.22608 328.43208 335.78208">utilizing</tspan></text>
<text xml:space="preserve" transform="matrix(.75 0 0 .75 36 303.42048)" font-size="14" font-family="Calibri"><tspan y="13.589844" x="345.5752 352.4072 363.5932 370.2992 373.5052 376.71119 381.1772">EmailJS</tspan></text>
<text xml:space="preserve" transform="matrix(.75 0 0 .75 36 303.42048)" font-size="14" font-family="Calibri"><tspan y="13.589844" x="390.7881 398.89408 406.13209">API</tspan></text>
<text xml:space="preserve" transform="matrix(.75 0 0 .75 36 303.42048)" font-size="14" font-family="Calibri"><tspan y="13.589844" x="412.81349 419.51948">as</tspan></text>
<text xml:space="preserve" transform="matrix(.75 0 0 .75 36 303.42048)" font-size="14" font-family="Calibri"><tspan y="13.589844" x="428.16017">a</tspan></text>
<text xml:space="preserve" transform="matrix(.75 0 0 .75 36 303.42048)" font-size="14" font-family="Calibri"><tspan y="13.589844" x="438.03126 443.83497 451.21296 458.34083 464.52735 471.49934 478.84934 482.05534 489.02735 496.25294">convenient</tspan></text>
<text xml:space="preserve" transform="matrix(.75 0 0 .75 36 303.42048)" font-size="14" font-family="Calibri"><tspan y="13.589844" x="504.10743 515.2934 522.2654 528.9714">mean</tspan></text>
<text xml:space="preserve" transform="matrix(.75 0 0 .75 36 303.42048)" font-size="14" font-family="Calibri"><tspan y="13.589844" x="539.4834 543.4619 550.8399">for</tspan></text>
<text xml:space="preserve" transform="matrix(.75 0 0 .75 36 303.42048)" font-size="14" font-family="Calibri"><tspan y="13.589844" x="558.8906 566.2406 571.7146 578.6866 583.3291">users</tspan></text>
<text xml:space="preserve" transform="matrix(.75 0 0 .75 36 303.42048)" font-size="14" font-family="Calibri"><tspan y="13.589844" x="591.9697 596.52249">to</tspan></text>
<text xml:space="preserve" transform="matrix(.75 0 0 .75 36 303.42048)" font-size="14" font-family="Calibri"><tspan y="13.589844" x="607.0703 614.4203 619.08108 626.40237 632.73037 635.93637 643.2863">provide</tspan></text>
<text xml:space="preserve" transform="matrix(.75 0 0 .75 36 303.42048)" font-size="14" font-family="Calibri"><tspan y="13.589844" x="653.4248 657.34866 664.3206 671.2926 678.6426 685.99258 692.69857 698.62057 704.99057">feedback,</tspan></text>
<text xml:space="preserve" transform="matrix(.75 0 0 .75 36 317.25254)" font-size="14" font-family="Calibri"><tspan y="13.589844" x="48 52.69629 59.66829 67.01829 74.396289 79.28229">report</tspan></text>
<text xml:space="preserve" transform="matrix(.75 0 0 .75 36 317.25254)" font-size="14" font-family="Calibri"><tspan y="13.589844" x="87.13574 90.34174 95.81574 101.28974 108.63974 115.61174 121.08574">issues,</tspan></text>
<text xml:space="preserve" transform="matrix(.75 0 0 .75 36 317.25254)" font-size="14" font-family="Calibri"><tspan y="13.589844" x="127.75488 134.46088 141.81089">and</tspan></text>
<text xml:space="preserve" transform="matrix(.75 0 0 .75 36 317.25254)" font-size="14" font-family="Calibri"><tspan y="13.589844" x="152.33692 159.71492 163.85547 167.7793 174.7513">offer</tspan></text>
<text xml:space="preserve" transform="matrix(.75 0 0 .75 36 317.25254)" font-size="14" font-family="Calibri"><tspan y="13.589844" x="182.79102 188.26502 195.61502 202.3418 208.81543 215.78743 221.09961 225.78961 228.9956 236.37361 243.72362">suggestions</tspan></text>
<text xml:space="preserve" transform="matrix(.75 0 0 .75 36 317.25254)" font-size="14" font-family="Calibri"><tspan y="13.589844" x="252.38086 258.70887 261.91487">via</tspan></text>
<text xml:space="preserve" transform="matrix(.75 0 0 .75 36 317.25254)" font-size="14" font-family="Calibri"><tspan y="13.589844" x="271.7881 278.76008 289.94609 296.65208 299.85807">email</tspan></text>
<text xml:space="preserve" transform="matrix(.75 0 0 .75 36 331.08464)" font-size="14" font-family="ArialMT"><tspan y="13.589844" x="24">&#x25cf;</tspan></text>
<text xml:space="preserve" transform="matrix(.75 0 0 .75 36 331.08464)" font-size="14" font-family="Calibri"><tspan y="13.589844" x="48 53.88 60.783205 66.96973 73.94173 78.5293 85.2353 91.708988 98.680988">Leveraged</tspan></text>
<text xml:space="preserve" transform="matrix(.75 0 0 .75 36 331.08464)" font-size="14" font-family="Calibri"><tspan y="13.589844" x="109.19531 116.55078 123.52278 130.22878 136.15077">React</tspan></text>
<text xml:space="preserve" transform="matrix(.75 0 0 .75 36 331.08464)" font-size="14" font-family="Calibri"><tspan y="13.589844" x="143.99707 150.70307 158.05307">and</tspan></text>
<text xml:space="preserve" transform="matrix(.75 0 0 .75 36 331.08464)" font-size="14" font-family="Calibri"><tspan y="13.589844" x="168.5791 176.0411 182.4671 188.8931">CSS3</tspan></text>
<text xml:space="preserve" transform="matrix(.75 0 0 .75 36 331.08464)" font-size="14" font-family="Calibri"><tspan y="13.589844" x="199.16992 203.70899 210.68099 216.60298 223.95299 231.303 238.681 241.887 249.265 255.859 259.065 266.037">technologies</tspan></text>
<text xml:space="preserve" transform="matrix(.75 0 0 .75 36 331.08464)" font-size="14" font-family="Calibri"><tspan y="13.589844" x="274.69337 279.2461">to</tspan></text>
<text xml:space="preserve" transform="matrix(.75 0 0 .75 36 331.08464)" font-size="14" font-family="Calibri"><tspan y="13.589844" x="289.79396 295.59767 302.97566 310.32566 317.67567 325.02568 330.94767">conduct</tspan></text>
<text xml:space="preserve" transform="matrix(.75 0 0 .75 36 331.08464)" font-size="14" font-family="Calibri"><tspan y="13.589844" x="338.8213 347.8093 351.3373 356.7413 365.7293">UI/UX</tspan></text>
<text xml:space="preserve" transform="matrix(.75 0 0 .75 36 331.08464)" font-size="14" font-family="Calibri"><tspan y="13.589844" x="376.15235 380.6914 387.4453 393.5498 398.2398 401.4458 408.7958 415.5547">texting,</tspan></text>
<text xml:space="preserve" transform="matrix(.75 0 0 .75 36 331.08464)" font-size="14" font-family="Calibri"><tspan y="13.589844" x="422.2129 425.41889 436.6049 443.9549 448.62013 455.9414 462.2694 465.4754 472.8254">improving</tspan></text>
<text xml:space="preserve" transform="matrix(.75 0 0 .75 36 331.08464)" font-size="14" font-family="Calibri"><tspan y="13.589844" x="482.5879 489.9379 495.4119 502.3839">user</tspan></text>
<text xml:space="preserve" transform="matrix(.75 0 0 .75 36 331.08464)" font-size="14" font-family="Calibri"><tspan y="13.589844" x="510.43067 517.40267 524.7526 531.08206 537.788 544.2617 551.2337 562.4197 569.39169 576.60256">engagement</tspan></text>
<text xml:space="preserve" transform="matrix(.75 0 0 .75 36 331.08464)" font-size="14" font-family="Calibri"><tspan y="13.589844" x="584.45706 591.163 598.513">and</tspan></text>
<text xml:space="preserve" transform="matrix(.75 0 0 .75 36 331.08464)" font-size="14" font-family="Calibri"><tspan y="13.589844" x="609.03909 616.41708 623.7158 628.4058 631.6118 642.7978 646.0038 651.5338 654.7398 662.0898">optimizing</tspan></text>
<text xml:space="preserve" transform="matrix(.75 0 0 .75 36 344.91676)" font-size="14" font-family="Calibri"><tspan y="13.589844" x="48 54.706 60.628004 66.55 73.522 78.996 84.47 87.676 95.026 98.232 101.438 104.644008 109.33401">accessibility</tspan></text>
<text xml:space="preserve" transform="matrix(.75 0 0 .75 36 344.91676)" font-size="14" font-family="Calibri"><tspan y="13.589844" x="118.86133 125.56733 131.48934 136.14258 143.52059 148.99459">across</tspan></text>
<text xml:space="preserve" transform="matrix(.75 0 0 .75 36 344.91676)" font-size="14" font-family="Calibri"><tspan y="13.589844" x="157.6416 163.44532 170.82332 182.00933 189.35933 196.70934 201.26172 208.23372 211.90528">computer,</tspan></text>
<text xml:space="preserve" transform="matrix(.75 0 0 .75 36 344.91676)" font-size="14" font-family="Calibri"><tspan y="13.589844" x="218.56348 223.08203 229.78803 237.13803 240.34403 247.24707 251.93708">tablet,</tspan></text>
<text xml:space="preserve" transform="matrix(.75 0 0 .75 36 344.91676)" font-size="14" font-family="Calibri"><tspan y="13.589844" x="258.59474 265.30073 272.65074">and</tspan></text>
<text xml:space="preserve" transform="matrix(.75 0 0 .75 36 344.91676)" font-size="14" font-family="Calibri"><tspan y="13.589844" x="283.17677 294.36277 301.74076 309.09077 312.29676 315.50276">mobile</tspan></text>
<text xml:space="preserve" transform="matrix(.75 0 0 .75 36 344.91676)" font-size="14" font-family="Calibri"><tspan y="13.589844" x="325.65528 333.00529 336.21128 342.7998 347.4898 351.46778 358.84577 363.73176 374.91777">platforms</tspan></text>
<text fill="#1c4587" xml:space="preserve" transform="matrix(.75 0 0 .75 36 372.5809)" font-size="16" font-family="Calibri" font-weight="bold"><tspan y="15.53125" x="0 8.512 17.367188 28.03125 33.32725 40.898439 49.445314 57.289064">PROJECTS</tspan></text>
<text xml:space="preserve" transform="matrix(.75 0 0 .75 36 388.38905)" font-size="14" font-family="Calibri" font-weight="bold"><tspan y="13.589844" x="0 7.658001 16.142003 28.378003 31.199219">KAM&#x2019;s</tspan></text>
<text xml:space="preserve" transform="matrix(.75 0 0 .75 36 388.38905)" font-size="14" font-family="Calibri" font-weight="bold"><tspan y="13.589844" x="39.94922 48.78322 56.31522 61.901224 69.41922 72.86322 77.56055 84.47655">Hospital</tspan></text>
<text xml:space="preserve" transform="matrix(.75 0 0 .75 36 388.38905)" font-size="14" font-family="Calibri" font-weight="bold"><tspan y="13.589844" x="91.075199 96.99719 104.52919 110.29785 117.0791 121.7959 129.3279">Locator</tspan></text>
<text xml:space="preserve" transform="matrix(.75 0 0 .75 36 388.38905)" font-size="14" font-family="Calibri"><tspan y="13.589844" x="658.8154 666.92147 674.2714 679.1574 682.3634">April</tspan></text>
<text xml:space="preserve" transform="matrix(.75 0 0 .75 36 388.38905)" font-size="14" font-family="Calibri"><tspan y="13.589844" x="688.74319 695.8412 702.9392 710.03726">2023</tspan></text>
<text fill="#1c4587" xml:space="preserve" transform="matrix(.75 0 0 .75 36 402.2211)" font-size="14" font-family="Calibri" font-style="italic"><tspan y="13.589844" x="0 6.8180005 14.014">The</tspan></text>
<text fill="#1c4587" xml:space="preserve" transform="matrix(.75 0 0 .75 36 402.2211)" font-size="14" font-family="Calibri" font-style="italic"><tspan y="13.589844" x="23.871094 32.593095 39.285097 46.481096 53.677095 58.966798 63.464845 70.66084 75.462848 80.00098 86.69298">Headstarter</tspan></text>
<text fill="#1c4587" xml:space="preserve" transform="matrix(.75 0 0 .75 36 402.2211)" font-size="14" font-family="Calibri" font-style="italic"><tspan y="13.589844" x="94.65039 103.37239 110.56839 116.39239 122.30859 129.5046 134.1946 141.3906 148.5726">Hackathon</tspan></text>
<text fill="#1c4587" xml:space="preserve" transform="matrix(.75 0 0 .75 36 402.2211)" font-size="14" font-family="Calibri"><tspan y="13.589844" x="158.94239">|</tspan></text>
<text fill="#1c4587" xml:space="preserve" transform="matrix(.75 0 0 .75 36 402.2211)" font-size="14" font-family="Calibri"><tspan y="13.589844" x="168.55371 175.65172 180.96778">1st</tspan></text>
<text fill="#1c4587" xml:space="preserve" transform="matrix(.75 0 0 .75 36 402.2211)" font-size="14" font-family="Calibri"><tspan y="13.589844" x="188.82227 196.06027 199.26627 205.97226 211.89426">Place</tspan></text>
<text xml:space="preserve" transform="matrix(.75 0 0 .75 36 416.05323)" font-size="14" font-family="ArialMT"><tspan y="13.589844" x="24">&#x25cf;</tspan></text>
<text xml:space="preserve" transform="matrix(.75 0 0 .75 36 416.05323)" font-size="14" font-family="Calibri"><tspan y="13.589844" x="48 56.61 59.816 65.29 72.64 75.846 82.31641 88.48242 95.45442">Displayed</tspan></text>
<text xml:space="preserve" transform="matrix(.75 0 0 .75 36 416.05323)" font-size="14" font-family="Calibri"><tspan y="13.589844" x="105.96875 113.06675 120.16475">10+</tspan></text>
<text xml:space="preserve" transform="matrix(.75 0 0 .75 36 416.05323)" font-size="14" font-family="Calibri"><tspan y="13.589844" x="130.29785 139.01985 146.39786 151.87186 159.22187 162.42786 166.96582 173.67182">Hospital</tspan></text>
<text xml:space="preserve" transform="matrix(.75 0 0 .75 36 416.05323)" font-size="14" font-family="Calibri"><tspan y="13.589844" x="180.0498 185.92981 193.30782 199.12207 205.69824 210.38825 213.59424 220.97225 228.32225">Locations</tspan></text>
<text xml:space="preserve" transform="matrix(.75 0 0 .75 36 416.05323)" font-size="14" font-family="Calibri"><tspan y="13.589844" x="236.97949 240.18549">in</tspan></text>
<text xml:space="preserve" transform="matrix(.75 0 0 .75 36 416.05323)" font-size="14" font-family="Calibri"><tspan y="13.589844" x="250.71289 259.7569 266.64747">New</tspan></text>
<text xml:space="preserve" transform="matrix(.75 0 0 .75 36 416.05323)" font-size="14" font-family="Calibri"><tspan y="13.589844" x="279.8203 285.59669 292.97468 297.86067">York</tspan></text>
<text xml:space="preserve" transform="matrix(.75 0 0 .75 36 416.05323)" font-size="14" font-family="Calibri"><tspan y="13.589844" x="307.38966 314.73966 320.21366 323.41966 330.76966">using</tspan></text>
<text xml:space="preserve" transform="matrix(.75 0 0 .75 36 416.05323)" font-size="14" font-family="Calibri"><tspan y="13.589844" x="340.54396 352.51396 359.21995 366.56996 373.91996 381.04005">Mapbox</tspan></text>
<text xml:space="preserve" transform="matrix(.75 0 0 .75 36 416.05323)" font-size="14" font-family="Calibri"><tspan y="13.589844" x="390.26856 398.37455 405.61256">API</tspan></text>
<text xml:space="preserve" transform="matrix(.75 0 0 .75 36 416.05323)" font-size="14" font-family="Calibri"><tspan y="13.589844" x="412.29396 418.99995 422.20594 425.41194 432.7539 442.76393 445.9699 453.31993">allowing</tspan></text>
<text xml:space="preserve" transform="matrix(.75 0 0 .75 36 416.05323)" font-size="14" font-family="Calibri"><tspan y="13.589844" x="463.08497 470.43498 475.90898 482.88099 487.52345">users</tspan></text>
<text xml:space="preserve" transform="matrix(.75 0 0 .75 36 416.05323)" font-size="14" font-family="Calibri"><tspan y="13.589844" x="496.16407 500.7168">to</tspan></text>
<text xml:space="preserve" transform="matrix(.75 0 0 .75 36 416.05323)" font-size="14" font-family="Calibri"><tspan y="13.589844" x="511.26466 516.73867 523.71066 530.4166 541.6026 544.8086 551.7806 557.2546 562.7286 565.9346">seamlessly</tspan></text>
<text xml:space="preserve" transform="matrix(.75 0 0 .75 36 416.05323)" font-size="14" font-family="Calibri"><tspan y="13.589844" x="575.4404 581.76846 584.9744 591.874">view</tspan></text>
<text xml:space="preserve" transform="matrix(.75 0 0 .75 36 416.05323)" font-size="14" font-family="Calibri"><tspan y="13.589844" x="605.0469 609.7369 617.08688 624.05886 627.26486">their</tspan></text>
<text xml:space="preserve" transform="matrix(.75 0 0 .75 36 416.05323)" font-size="14" font-family="Calibri"><tspan y="13.589844" x="635.3164 641.2384 648.5884 653.47439 658.16897 665.1409 672.36038">current</tspan></text>
<text xml:space="preserve" transform="matrix(.75 0 0 .75 36 429.8853)" font-size="14" font-family="Calibri"><tspan y="13.589844" x="48 51.206 58.584 64.399417 70.975589 75.66559 78.87159 86.24959">location</tspan></text>
<text xml:space="preserve" transform="matrix(.75 0 0 .75 36 429.8853)" font-size="14" font-family="Calibri"><tspan y="13.589844" x="96.78125 103.48725 110.83725">and</tspan></text>
<text xml:space="preserve" transform="matrix(.75 0 0 .75 36 429.8853)" font-size="14" font-family="Calibri"><tspan y="13.589844" x="121.36328 127.836917 134.80892 142.15892 149.13092 153.71778 160.29395 164.83301">generate</tspan></text>
<text xml:space="preserve" transform="matrix(.75 0 0 .75 36 429.8853)" font-size="14" font-family="Calibri"><tspan y="13.589844" x="174.96387 182.34188 189.64063 194.33063 197.53662 208.72263 211.92862 217.15528 224.12728">optimized</tspan></text>
<text xml:space="preserve" transform="matrix(.75 0 0 .75 36 429.8853)" font-size="14" font-family="Calibri"><tspan y="13.589844" x="234.6416 239.29688 246.67488 254.02489 258.57423 265.5462">routes</tspan></text>
<text xml:space="preserve" transform="matrix(.75 0 0 .75 36 429.8853)" font-size="14" font-family="Calibri"><tspan y="13.589844" x="274.18067 278.15919 285.53718">for</tspan></text>
<text xml:space="preserve" transform="matrix(.75 0 0 .75 36 429.8853)" font-size="14" font-family="Calibri"><tspan y="13.589844" x="293.5879 300.9379 305.82389 309.02989 315.35789 318.56388 325.91389 332.67579">driving,</tspan></text>
<text xml:space="preserve" transform="matrix(.75 0 0 .75 36 429.8853)" font-size="14" font-family="Calibri"><tspan y="13.589844" x="339.33399 345.25599 351.4131 357.33509 360.54109 363.74708 371.09709 377.86134">cycling,</tspan></text>
<text xml:space="preserve" transform="matrix(.75 0 0 .75 36 429.8853)" font-size="14" font-family="Calibri"><tspan y="13.589844" x="384.51954 391.22554 398.57554">and</tspan></text>
<text xml:space="preserve" transform="matrix(.75 0 0 .75 36 429.8853)" font-size="14" font-family="Calibri"><tspan y="13.589844" x="409.10157 418.95216 425.65815 428.86415 435.23414 438.44013 445.79014">walking</tspan></text>
<text xml:space="preserve" transform="matrix(.75 0 0 .75 36 429.8853)" font-size="14" font-family="Calibri"><tspan y="13.589844" x="455.5586 460.11134">to</tspan></text>
<text xml:space="preserve" transform="matrix(.75 0 0 .75 36 429.8853)" font-size="14" font-family="Calibri"><tspan y="13.589844" x="470.65919 475.34919 482.6992 489.6712 492.8772">their</tspan></text>
<text xml:space="preserve" transform="matrix(.75 0 0 .75 36 429.8853)" font-size="14" font-family="Calibri"><tspan y="13.589844" x="500.9287 508.27873 512.98049 519.82327 523.7471 530.71908 535.60507 540.29006 547.262">preferred</tspan></text>
<text xml:space="preserve" transform="matrix(.75 0 0 .75 36 429.8853)" font-size="14" font-family="Calibri"><tspan y="13.589844" x="557.77639 565.12637 572.50436 577.97836 585.3283 588.5343 593.07717 599.78317">hospital</tspan></text>
<text xml:space="preserve" transform="matrix(.75 0 0 .75 36 443.71739)" font-size="14" font-family="ArialMT"><tspan y="13.589844" x="24">&#x25cf;</tspan></text>
<text xml:space="preserve" transform="matrix(.75 0 0 .75 36 443.71739)" font-size="14" font-family="Calibri"><tspan y="13.589844" x="48 57.268 61.958986 68.28906 74.99506 82.34506 85.55106 90.7793 97.7513">Organized</tspan></text>
<text xml:space="preserve" transform="matrix(.75 0 0 .75 36 443.71739)" font-size="14" font-family="Calibri"><tspan y="13.589844" x="108.265628 116.987628 124.36562 129.83963 137.18964 140.39563 144.9336 151.63959">Hospital</tspan></text>
<text xml:space="preserve" transform="matrix(.75 0 0 .75 36 443.71739)" font-size="14" font-family="Calibri"><tspan y="13.589844" x="158.01758 165.33203 172.71004 178.0332 182.57227 189.54427">Roster</tspan></text>
<text xml:space="preserve" transform="matrix(.75 0 0 .75 36 443.71739)" font-size="14" font-family="Calibri"><tspan y="13.589844" x="197.58399 204.93399 211.63999 217.11399 224.08599">based</tspan></text>
<text xml:space="preserve" transform="matrix(.75 0 0 .75 36 443.71739)" font-size="14" font-family="Calibri"><tspan y="13.589844" x="234.60742 241.98543">on</tspan></text>
<text xml:space="preserve" transform="matrix(.75 0 0 .75 36 443.71739)" font-size="14" font-family="Calibri"><tspan y="13.589844" x="252.51074 259.86076 264.52149 271.63087 277.69288 280.89888 292.08488 295.29087 299.98088">proximity</tspan></text>
<text xml:space="preserve" transform="matrix(.75 0 0 .75 36 443.71739)" font-size="14" font-family="Calibri"><tspan y="13.589844" x="309.49513 316.84513 322.31913 325.52513 332.87513">using</tspan></text>
<text xml:space="preserve" transform="matrix(.75 0 0 .75 36 443.71739)" font-size="14" font-family="Calibri"><tspan y="13.589844" x="342.6494 349.3554 356.7054 362.8291 369.5351 376.8851 382.8071 389.7791">advanced</tspan></text>
<text xml:space="preserve" transform="matrix(.75 0 0 .75 36 443.71739)" font-size="14" font-family="Calibri"><tspan y="13.589844" x="400.29689 404.76289 411.23439 417.35255 424.05854 429.53254 435.45454 440.3405 443.5465 450.8418">Javascript</tspan></text>
<text xml:space="preserve" transform="matrix(.75 0 0 .75 36 443.71739)" font-size="14" font-family="Calibri"><tspan y="13.589844" x="458.6963 465.40229 468.60829 475.10939 482.48738 487.37336 490.57936 495.26936 502.61936 513.80538">algorithms</tspan></text>
<text xml:space="preserve" transform="matrix(.75 0 0 .75 36 443.71739)" font-size="14" font-family="Calibri"><tspan y="13.589844" x="522.4551 527.0078">to</tspan></text>
<text xml:space="preserve" transform="matrix(.75 0 0 .75 36 443.71739)" font-size="14" font-family="Calibri"><tspan y="13.589844" x="537.55569 544.26168 547.46768 554.43966 559.3256">alert</tspan></text>
<text xml:space="preserve" transform="matrix(.75 0 0 .75 36 443.71739)" font-size="14" font-family="Calibri"><tspan y="13.589844" x="567.1758 571.8658 579.21578">the</tspan></text>
<text xml:space="preserve" transform="matrix(.75 0 0 .75 36 443.71739)" font-size="14" font-family="Calibri"><tspan y="13.589844" x="589.35159 600.53756 607.9155 613.2363">most</tspan></text>
<text xml:space="preserve" transform="matrix(.75 0 0 .75 36 443.71739)" font-size="14" font-family="Calibri"><tspan y="13.589844" x="621.0908 626.89456 634.2725 641.4004 647.5869 654.5589 661.9089 665.11489 672.08688 679.3125">convenient</tspan></text>
<text xml:space="preserve" transform="matrix(.75 0 0 .75 36 457.5495)" font-size="14" font-family="Calibri"><tspan y="13.589844" x="48 51.206 58.584 64.399417 70.975589 75.66559 78.87159 86.24959">location</tspan></text>
<text xml:space="preserve" transform="matrix(.75 0 0 .75 36 457.5495)" font-size="14" font-family="Calibri"><tspan y="13.589844" x="96.78125 99.98725 107.33725 113.25925 116.46525 123.81525 131.16526 134.37125 141.72126">including</tspan></text>
<text xml:space="preserve" transform="matrix(.75 0 0 .75 36 457.5495)" font-size="14" font-family="Calibri"><tspan y="13.589844" x="151.5166 158.4886 163.80078 168.49079 171.69678 182.88278 189.46289 194.00196 200.97396">estimated</tspan></text>
<text xml:space="preserve" transform="matrix(.75 0 0 .75 36 457.5495)" font-size="14" font-family="Calibri"><tspan y="13.589844" x="211.48828 218.83829 222.04428 227.375 231.89356 238.59955 245.94956 251.87155">distance</tspan></text>
<text xml:space="preserve" transform="matrix(.75 0 0 .75 36 457.5495)" font-size="14" font-family="Calibri"><tspan y="13.589844" x="262.00587 268.71186 276.06187">and</tspan></text>
<text xml:space="preserve" transform="matrix(.75 0 0 .75 36 457.5495)" font-size="14" font-family="Calibri"><tspan y="13.589844" x="286.5879 291.2779 294.4839 305.6699">time</tspan></text>
<text xml:space="preserve" transform="matrix(.75 0 0 .75 36 457.5495)" font-size="14" font-family="Calibri"><tspan y="13.589844" x="315.8047 323.18269">of</tspan></text>
<text xml:space="preserve" transform="matrix(.75 0 0 .75 36 457.5495)" font-size="14" font-family="Calibri"><tspan y="13.589844" x="330.625 337.331 342.21699 347.10298 350.30897 356.42384 363.12983">arrival</tspan></text>
<text xml:space="preserve" transform="matrix(.75 0 0 .75 36 471.3816)" font-size="14" font-family="ArialMT"><tspan y="13.589844" x="24">&#x25cf;</tspan></text>
<text xml:space="preserve" transform="matrix(.75 0 0 .75 36 471.3816)" font-size="14" font-family="Calibri"><tspan y="13.589844" x="48 55.238 59.887697 67.208988 73.53699 76.74299 84.09299 91.06499">Provided</tspan></text>
<text xml:space="preserve" transform="matrix(.75 0 0 .75 36 471.3816)" font-size="14" font-family="Calibri"><tspan y="13.589844" x="101.586917 108.93691 116.28691 119.49291 125.41491">quick</tspan></text>
<text xml:space="preserve" transform="matrix(.75 0 0 .75 36 471.3816)" font-size="14" font-family="Calibri"><tspan y="13.589844" x="134.95996 142.30997 147.78397 154.75597">user</tspan></text>
<text xml:space="preserve" transform="matrix(.75 0 0 .75 36 471.3816)" font-size="14" font-family="Calibri"><tspan y="13.589844" x="162.80274 169.50873 175.43073 181.35272 188.32472 193.79872 199.27272 202.47872 209.82872 213.03472 216.2407 219.4467 224.1367">accessibility</tspan></text>
<text xml:space="preserve" transform="matrix(.75 0 0 .75 36 471.3816)" font-size="14" font-family="Calibri"><tspan y="13.589844" x="233.66407 236.87006 248.05606 255.40607 258.61207 265.58406 276.77006 283.74208 290.96974 295.65974 298.86573 306.21574">implementing</tspan></text>
<text xml:space="preserve" transform="matrix(.75 0 0 .75 36 471.3816)" font-size="14" font-family="Calibri"><tspan y="13.589844" x="315.98243 324.7044 331.5224 343.4924">HTML</tspan></text>
<text xml:space="preserve" transform="matrix(.75 0 0 .75 36 471.3816)" font-size="14" font-family="Calibri"><tspan y="13.589844" x="352.54786 357.0664 363.7724 370.3664">tags</tspan></text>
<text xml:space="preserve" transform="matrix(.75 0 0 .75 36 471.3816)" font-size="14" font-family="Calibri"><tspan y="13.589844" x="379.00294 385.70893 393.05894">and</tspan></text>
<text xml:space="preserve" transform="matrix(.75 0 0 .75 36 471.3816)" font-size="14" font-family="Calibri"><tspan y="13.589844" x="403.58497 410.16114 414.65235 419.34236 424.22834 427.43434 434.78434 442.13435 446.68556 453.65754">attributes</tspan></text>
<text xml:space="preserve" transform="matrix(.75 0 0 .75 36 471.3816)" font-size="14" font-family="Calibri"><tspan y="13.589844" x="462.292 466.2705 473.6485">for</tspan></text>
<text xml:space="preserve" transform="matrix(.75 0 0 .75 36 471.3816)" font-size="14" font-family="Calibri"><tspan y="13.589844" x="481.69923 489.04924 494.52323 501.49525 506.1377">users</tspan></text>
<text xml:space="preserve" transform="matrix(.75 0 0 .75 36 471.3816)" font-size="14" font-family="Calibri"><tspan y="13.589844" x="514.7783 519.33108">to</tspan></text>
<text xml:space="preserve" transform="matrix(.75 0 0 .75 36 471.3816)" font-size="14" font-family="Calibri"><tspan y="13.589844" x="529.8789 535.28616 545.29617 548.50216 552.77218 557.46218 560.66818">swiftly</tspan></text>
<text xml:space="preserve" transform="matrix(.75 0 0 .75 36 471.3816)" font-size="14" font-family="Calibri"><tspan y="13.589844" x="570.1836 576.5116 579.7176 586.6172">view</tspan></text>
<text xml:space="preserve" transform="matrix(.75 0 0 .75 36 471.3816)" font-size="14" font-family="Calibri"><tspan y="13.589844" x="599.79006 604.48007 611.83 618.802 622.008">their</tspan></text>
<text xml:space="preserve" transform="matrix(.75 0 0 .75 36 471.3816)" font-size="14" font-family="Calibri"><tspan y="13.589844" x="630.0596 639.94436 646.9163 654.2663 661.6163 668.32229 674.8008 681.77279">webpages</tspan></text>
<text xml:space="preserve" transform="matrix(.75 0 0 .75 36 471.3816)" font-size="14" font-family="Calibri"><tspan y="13.589844" x="690.4072 697.1132 704.4632">and</tspan></text>
<text xml:space="preserve" transform="matrix(.75 0 0 .75 36 485.21366)" font-size="14" font-family="Calibri"><tspan y="13.589844" x="48 54.972 61.678 67.152 70.358 73.564">easily</tspan></text>
<text xml:space="preserve" transform="matrix(.75 0 0 .75 36 485.21366)" font-size="14" font-family="Calibri"><tspan y="13.589844" x="83.075199 90.42519 93.631198 100.3372">dial</tspan></text>
<text xml:space="preserve" transform="matrix(.75 0 0 .75 36 485.21366)" font-size="14" font-family="Calibri"><tspan y="13.589844" x="106.72754 111.41754 118.76754 125.73954 128.94554">their</tspan></text>
<text xml:space="preserve" transform="matrix(.75 0 0 .75 36 485.21366)" font-size="14" font-family="Calibri"><tspan y="13.589844" x="136.99707 144.34708 151.72509 157.19908 164.54909 167.75508 172.29785 179.00385">hospital</tspan></text>
<text xml:space="preserve" transform="matrix(.75 0 0 .75 36 485.21366)" font-size="14" font-family="Calibri"><tspan y="13.589844" x="185.38184 191.30384 198.27584 205.49317 210.03223 217.00423 221.63965">centers</tspan></text>
<text xml:space="preserve" transform="matrix(.75 0 0 .75 36 485.21366)" font-size="14" font-family="Calibri"><tspan y="13.589844" x="230.28028 234.25879 241.6368">for</tspan></text>
<text xml:space="preserve" transform="matrix(.75 0 0 .75 36 485.21366)" font-size="14" font-family="Calibri"><tspan y="13.589844" x="249.6875 256.6595 267.8455 274.8175 279.4922 285.96583 292.9378 300.2878 306.2098">emergency</tspan></text>
<text xml:space="preserve" transform="matrix(.75 0 0 .75 36 485.21366)" font-size="14" font-family="Calibri"><tspan y="13.589844" x="315.70899 323.059 330.409 335.29499 342.645 350.02299 355.49699 362.469">purposes</tspan></text>
<text xml:space="preserve" transform="matrix(.75 0 0 .75 36 512.87789)" font-size="14" font-family="Calibri" font-weight="bold"><tspan y="13.589844" x="0 8.141602 14.763601 18.207602 24.60254 31.51854 34.96254 38.40654 41.213869">Avigail&#x2019;s</tspan></text>
<text xml:space="preserve" transform="matrix(.75 0 0 .75 36 512.87789)" font-size="14" font-family="Calibri" font-weight="bold"><tspan y="13.589844" x="49.963869 57.817869 61.261869 68.79387 75.42987">Blogs</tspan></text>
<text xml:space="preserve" transform="matrix(.75 0 0 .75 36 512.87789)" font-size="14" font-family="Calibri"><tspan y="13.589844" x="607.6504 613.8779 620.8499 628.1999">Feb.</tspan></text>
<text xml:space="preserve" transform="matrix(.75 0 0 .75 36 512.87789)" font-size="14" font-family="Calibri"><tspan y="13.589844" x="634.89846 641.99649 649.0945 656.1925">2023</tspan></text>
<text xml:space="preserve" transform="matrix(.75 0 0 .75 36 512.87789)" font-size="14" font-family="Calibri"><tspan y="13.589844" x="666.4463">&#x2013;</tspan></text>
<text xml:space="preserve" transform="matrix(.75 0 0 .75 36 512.87789)" font-size="14" font-family="Calibri"><tspan y="13.589844" x="676.584 683.82199 688.5127 695.4847 700.9587 707.93069 715.1455">Present</tspan></text>
<text fill="#1c4587" xml:space="preserve" transform="matrix(.75 0 0 .75 36 526.70999)" font-size="14" font-family="Calibri" font-style="italic"><tspan y="13.589844" x="0 6.248047 11.050047 17.742047 24.434048 27.640049 34.83605 42.032049 47.762697 54.454698">Freelancer</tspan></text>
<text fill="#1c4587" xml:space="preserve" transform="matrix(.75 0 0 .75 36 526.70999)" font-size="14" font-family="Calibri"><tspan y="13.589844" x="62.41211">|</tspan></text>
<text fill="#1c4587" xml:space="preserve" transform="matrix(.75 0 0 .75 36 526.70999)" font-size="14" font-family="Calibri"><tspan y="13.589844" x="72.02344 81.445438 88.79543 95.76743 102.73943 110.08943 115.56343">Queens,</tspan></text>
<text fill="#1c4587" xml:space="preserve" transform="matrix(.75 0 0 .75 36 526.70999)" font-size="14" font-family="Calibri"><tspan y="13.589844" x="122.21973 131.26374">NY</tspan></text>
<text xml:space="preserve" transform="matrix(.75 0 0 .75 36 540.54208)" font-size="14" font-family="ArialMT"><tspan y="13.589844" x="24">&#x25cf;</tspan></text>
<text xml:space="preserve" transform="matrix(.75 0 0 .75 36 540.54208)" font-size="14" font-family="Calibri"><tspan y="13.589844" x="48 51.528 62.714 70.064 73.270008 80.242008 91.42801 98.40001 105.62012 110.15918 117.13118">Implemented</tspan></text>
<text xml:space="preserve" transform="matrix(.75 0 0 .75 36 540.54208)" font-size="14" font-family="Calibri"><tspan y="13.589844" x="127.64551 135.24752 141.94629 148.2832 155.1012 159.3712 166.7212">RESTful</tspan></text>
<text xml:space="preserve" transform="matrix(.75 0 0 .75 36 540.54208)" font-size="14" font-family="Calibri"><tspan y="13.589844" x="173.11133 181.21733 188.45534">API</tspan></text>
<text xml:space="preserve" transform="matrix(.75 0 0 .75 36 540.54208)" font-size="14" font-family="Calibri"><tspan y="13.589844" x="195.13672 202.48673 207.96073 214.66672 221.14746">usage</tspan></text>
<text xml:space="preserve" transform="matrix(.75 0 0 .75 36 540.54208)" font-size="14" font-family="Calibri"><tspan y="13.589844" x="231.27832 241.28832 244.49431 249.18431">with</tspan></text>
<text xml:space="preserve" transform="matrix(.75 0 0 .75 36 540.54208)" font-size="14" font-family="Calibri"><tspan y="13.589844" x="259.70899 268.543 275.921 283.29899 289.89299 293.09898">Google</tspan></text>
<text xml:space="preserve" transform="matrix(.75 0 0 .75 36 540.54208)" font-size="14" font-family="Calibri"><tspan y="13.589844" x="303.24024 309.66624 317.01625 321.7246 328.6966 335.4026 342.7526 348.2266 355.5766 362.54859 369.43946">Spreadsheet</tspan></text>
<text xml:space="preserve" transform="matrix(.75 0 0 .75 36 540.54208)" font-size="14" font-family="Calibri"><tspan y="13.589844" x="377.29396 381.84669">to</tspan></text>
<text xml:space="preserve" transform="matrix(.75 0 0 .75 36 540.54208)" font-size="14" font-family="Calibri"><tspan y="13.589844" x="392.39454 396.39356 403.09956 409.02156 412.22755 415.43354 418.63954 423.17677 429.75294 434.292">facilitate</tspan></text>
<text xml:space="preserve" transform="matrix(.75 0 0 .75 36 540.54208)" font-size="14" font-family="Calibri"><tspan y="13.589844" x="444.42286 450.34486 453.55085 456.75685 463.72883 470.95997">client</tspan></text>
<text xml:space="preserve" transform="matrix(.75 0 0 .75 36 540.54208)" font-size="14" font-family="Calibri"><tspan y="13.589844" x="478.81446 485.56837 491.63038 498.98039 505.9524 510.83839 514.0444 521.01638 528.36636 534.2883">experience</tspan></text>
<text xml:space="preserve" transform="matrix(.75 0 0 .75 36 540.54208)" font-size="14" font-family="Calibri"><tspan y="13.589844" x="544.41897 548.39749 555.77548">for</tspan></text>
<text xml:space="preserve" transform="matrix(.75 0 0 .75 36 540.54208)" font-size="14" font-family="Calibri"><tspan y="13.589844" x="563.8262 571.17617 574.38217 581.76016">blog</tspan></text>
<text xml:space="preserve" transform="matrix(.75 0 0 .75 36 540.54208)" font-size="14" font-family="Calibri"><tspan y="13.589844" x="591.5322 598.8822 606.2602 611.58889 616.2789 619.48489 626.83486">posting</tspan></text>
<text xml:space="preserve" transform="matrix(.75 0 0 .75 36 540.54208)" font-size="14" font-family="Calibri"><tspan y="13.589844" x="636.60159 643.30758 650.65756">and</tspan></text>
<text xml:space="preserve" transform="matrix(.75 0 0 .75 36 540.54208)" font-size="14" font-family="Calibri"><tspan y="13.589844" x="661.1836 666.6576 673.6296 680.3356 691.52157 694.72756 701.6995 707.1735">seamless</tspan></text>
<text xml:space="preserve" transform="matrix(.75 0 0 .75 36 554.37417)" font-size="14" font-family="Calibri"><tspan y="13.589844" x="48 55.35 60.823999 67.796">user</tspan></text>
<text xml:space="preserve" transform="matrix(.75 0 0 .75 36 554.37417)" font-size="14" font-family="Calibri"><tspan y="13.589844" x="75.84277 82.59668 88.658679 96.008678 102.980678 107.86668 111.07268 118.04468 125.39468 131.31668">experience</tspan></text>
<text xml:space="preserve" transform="matrix(.75 0 0 .75 36 554.37417)" font-size="14" font-family="Calibri"><tspan y="13.589844" x="141.44727 145.42578 152.80379">for</tspan></text>
<text xml:space="preserve" transform="matrix(.75 0 0 .75 36 554.37417)" font-size="14" font-family="Calibri"><tspan y="13.589844" x="160.85449 167.1825 170.38849 177.28809 187.29808 190.50408 197.85408">viewing</tspan></text>
<text xml:space="preserve" transform="matrix(.75 0 0 .75 36 554.37417)" font-size="14" font-family="Calibri"><tspan y="13.589844" x="207.61914 214.96915 218.17514 225.55315 232.14714 237.62114">blogs,</tspan></text>
<text xml:space="preserve" transform="matrix(.75 0 0 .75 36 554.37417)" font-size="14" font-family="Calibri"><tspan y="13.589844" x="244.29395 251.26595 258.61595 265.96595 272.67195 280.02195 285.94395 289.14994 296.49995">enhancing</tspan></text>
<text xml:space="preserve" transform="matrix(.75 0 0 .75 36 554.37417)" font-size="14" font-family="Calibri"><tspan y="13.589844" x="306.2754 310.9654 318.3154">the</tspan></text>
<text xml:space="preserve" transform="matrix(.75 0 0 .75 36 554.37417)" font-size="14" font-family="Calibri"><tspan y="13.589844" x="328.45118 335.77247 341.95899 348.93098 353.51856 360.22456 363.43055">overall</tspan></text>
<text xml:space="preserve" transform="matrix(.75 0 0 .75 36 554.37417)" font-size="14" font-family="Calibri"><tspan y="13.589844" x="369.81544 377.16545 382.63945 389.34544 396.69544 399.90144 403.10743 406.31343 411.00343">usability</tspan></text>
<text xml:space="preserve" transform="matrix(.75 0 0 .75 36 554.37417)" font-size="14" font-family="Calibri"><tspan y="13.589844" x="420.5381 427.24409 434.5941">and</tspan></text>
<text xml:space="preserve" transform="matrix(.75 0 0 .75 36 554.37417)" font-size="14" font-family="Calibri"><tspan y="13.589844" x="445.12013 449.3901 456.7401 464.09013 470.01213 474.70213 477.9081 485.2861 492.6361 499.3421 502.5481 505.7541 510.4441">functionality</tspan></text>
<text xml:space="preserve" transform="matrix(.75 0 0 .75 36 554.37417)" font-size="14" font-family="Calibri"><tspan y="13.589844" x="519.9873 527.3653">of</tspan></text>
<text xml:space="preserve" transform="matrix(.75 0 0 .75 36 554.37417)" font-size="14" font-family="Calibri"><tspan y="13.589844" x="534.8076 539.4976 546.8476">the</tspan></text>
<text xml:space="preserve" transform="matrix(.75 0 0 .75 36 554.37417)" font-size="14" font-family="Calibri"><tspan y="13.589844" x="556.9834 563.4094 570.7594 575.4678 582.43978 589.14578 596.4957 601.9697 609.3197 616.2917 623.1826">Spreadsheet</tspan></text>
<text xml:space="preserve" transform="matrix(.75 0 0 .75 36 554.37417)" font-size="14" font-family="Calibri"><tspan y="13.589844" x="631.0371 638.4151 645.7651 648.97109 652.17709 659.52706">online</tspan></text>
<text xml:space="preserve" transform="matrix(.75 0 0 .75 36 568.2062)" font-size="14" font-family="Calibri"><tspan y="13.589844" x="48 55.35 61.93164 66.450199 73.1562 80.506198 87.2122 92.686199">database</tspan></text>
<text xml:space="preserve" transform="matrix(.75 0 0 .75 36 582.0383)" font-size="14" font-family="ArialMT"><tspan y="13.589844" x="24">&#x25cf;</tspan></text>
<text xml:space="preserve" transform="matrix(.75 0 0 .75 36 582.0383)" font-size="14" font-family="Calibri"><tspan y="13.589844" x="48 55.35547 62.32747 67.63965 72.32965 77.21565 84.56565 90.48765 95.17765 102.52765 107.22656 114.19856">Restructured</tspan></text>
<text xml:space="preserve" transform="matrix(.75 0 0 .75 36 582.0383)" font-size="14" font-family="Calibri"><tspan y="13.589844" x="124.71289 132.0629 138.76889 145.24805">page</tspan></text>
<text xml:space="preserve" transform="matrix(.75 0 0 .75 36 582.0383)" font-size="14" font-family="Calibri"><tspan y="13.589844" x="155.3789 159.35742 166.73543 171.62143 182.80744 189.38086">format</tspan></text>
<text xml:space="preserve" transform="matrix(.75 0 0 .75 36 582.0383)" font-size="14" font-family="Calibri"><tspan y="13.589844" x="197.23535 204.58536 210.05936 213.26535 220.61536">using</tspan></text>
<text xml:space="preserve" transform="matrix(.75 0 0 .75 36 582.0383)" font-size="14" font-family="Calibri"><tspan y="13.589844" x="230.38965 237.85166 244.27765">CSS</tspan></text>
<text xml:space="preserve" transform="matrix(.75 0 0 .75 36 582.0383)" font-size="14" font-family="Calibri"><tspan y="13.589844" x="253.88477 258.42384 265.3958 271.3178 278.66783 286.01783 289.22383 296.57383 303.92384 310.8958">techniques</tspan></text>
<text xml:space="preserve" transform="matrix(.75 0 0 .75 36 582.0383)" font-size="14" font-family="Calibri"><tspan y="13.589844" x="319.55079 324.10353">to</tspan></text>
<text xml:space="preserve" transform="matrix(.75 0 0 .75 36 582.0383)" font-size="14" font-family="Calibri"><tspan y="13.589844" x="334.65138 341.62336 348.97337 356.32337 363.02937 370.37937 376.30137">enhance</tspan></text>
<text xml:space="preserve" transform="matrix(.75 0 0 .75 36 582.0383)" font-size="14" font-family="Calibri"><tspan y="13.589844" x="386.44044 397.62644 405.00444 412.35444 415.56044 418.76643">mobile</tspan></text>
<text xml:space="preserve" transform="matrix(.75 0 0 .75 36 582.0383)" font-size="14" font-family="Calibri"><tspan y="13.589844" x="428.91896 435.62495 442.97496">and</tspan></text>
<text xml:space="preserve" transform="matrix(.75 0 0 .75 36 582.0383)" font-size="14" font-family="Calibri"><tspan y="13.589844" x="453.50099 458.01954 464.72554 472.07554 475.28153 482.18458">tablet</tspan></text>
<text xml:space="preserve" transform="matrix(.75 0 0 .75 36 582.0383)" font-size="14" font-family="Calibri"><tspan y="13.589844" x="490.03907 497.38908 502.86308 509.83509">user</tspan></text>
<text xml:space="preserve" transform="matrix(.75 0 0 .75 36 582.0383)" font-size="14" font-family="Calibri"><tspan y="13.589844" x="517.88186 524.5878 530.5098 536.4318 543.4038 548.8778 554.3518 557.5578 564.9078 568.1138 571.31979 574.52578 579.21578 584.5801">accessibility,</tspan></text>
<text xml:space="preserve" transform="matrix(.75 0 0 .75 36 582.0383)" font-size="14" font-family="Calibri"><tspan y="13.589844" x="591.2383 595.9346 602.90658 608.38058 615.7305 618.9365 623.6265 626.8325 634.1825">resulting</tspan></text>
<text xml:space="preserve" transform="matrix(.75 0 0 .75 36 582.0383)" font-size="14" font-family="Calibri"><tspan y="13.589844" x="643.95706 647.163">in</tspan></text>
<text xml:space="preserve" transform="matrix(.75 0 0 .75 36 582.0383)" font-size="14" font-family="Calibri"><tspan y="13.589844" x="657.6904">a</tspan></text>
<text xml:space="preserve" transform="matrix(.75 0 0 .75 36 595.8704)" font-size="14" font-family="Calibri"><tspan y="13.589844" x="48 52.69629 59.66829 65.14229 72.49229 79.870288 87.22028 92.69428 95.90028 102.106449">responsive</tspan></text>
<text xml:space="preserve" transform="matrix(.75 0 0 .75 36 595.8704)" font-size="14" font-family="Calibri"><tspan y="13.589844" x="112.237308 118.943309 126.293308">and</tspan></text>
<text xml:space="preserve" transform="matrix(.75 0 0 .75 36 595.8704)" font-size="14" font-family="Calibri"><tspan y="13.589844" x="136.81934 144.19734 151.4961 156.1861 159.39209 170.5781 173.78409 179.01074 185.98274">optimized</tspan></text>
<text xml:space="preserve" transform="matrix(.75 0 0 .75 36 595.8704)" font-size="14" font-family="Calibri"><tspan y="13.589844" x="196.49707 203.84708 209.32108 216.29308">user</tspan></text>
<text xml:space="preserve" transform="matrix(.75 0 0 .75 36 595.8704)" font-size="14" font-family="Calibri"><tspan y="13.589844" x="224.33985 227.54584 234.77832 239.31739 246.28939 251.17539 255.16309 261.86909 267.79109">interface</tspan></text>
<text xml:space="preserve" transform="matrix(.75 0 0 .75 36 609.7025)" font-size="14" font-family="ArialMT"><tspan y="13.589844" x="24">&#x25cf;</tspan></text>
<text xml:space="preserve" transform="matrix(.75 0 0 .75 36 609.7025)" font-size="14" font-family="Calibri"><tspan y="13.589844" x="48 51.528 58.75293 63.291994 70.26399 76.857997 81.44141 88.01758 92.55664 99.52864">Integrated</tspan></text>
<text xml:space="preserve" transform="matrix(.75 0 0 .75 36 609.7025)" font-size="14" font-family="Calibri"><tspan y="13.589844" x="110.04297 116.87497 128.06098 134.76697 137.97296 141.17896 145.64496">EmailJS</tspan></text>
<text xml:space="preserve" transform="matrix(.75 0 0 .75 36 609.7025)" font-size="14" font-family="Calibri"><tspan y="13.589844" x="155.25586 165.26586 168.47185 173.16185">with</tspan></text>
<text xml:space="preserve" transform="matrix(.75 0 0 .75 36 609.7025)" font-size="14" font-family="Calibri"><tspan y="13.589844" x="183.68653 191.04199 198.01399 204.71999 210.64199">React</tspan></text>
<text xml:space="preserve" transform="matrix(.75 0 0 .75 36 609.7025)" font-size="14" font-family="Calibri"><tspan y="13.589844" x="218.48828 222.4668 229.8448">for</tspan></text>
<text xml:space="preserve" transform="matrix(.75 0 0 .75 36 609.7025)" font-size="14" font-family="Calibri"><tspan y="13.589844" x="237.89551 245.24552 250.71952 257.69154 262.33399">users</tspan></text>
<text xml:space="preserve" transform="matrix(.75 0 0 .75 36 609.7025)" font-size="14" font-family="Calibri"><tspan y="13.589844" x="270.9746 275.52735">to</tspan></text>
<text xml:space="preserve" transform="matrix(.75 0 0 .75 36 609.7025)" font-size="14" font-family="Calibri"><tspan y="13.589844" x="286.0752 291.8789 299.2569 310.4429 321.6289 328.9789 336.32893 339.5349 345.35646 351.93263 356.47169">communicate</tspan></text>
<text xml:space="preserve" transform="matrix(.75 0 0 .75 36 609.7025)" font-size="14" font-family="Calibri"><tspan y="13.589844" x="366.60255 370.58106 377.95906">for</tspan></text>
<text xml:space="preserve" transform="matrix(.75 0 0 .75 36 609.7025)" font-size="14" font-family="Calibri"><tspan y="13.589844" x="386.00978 389.21577 396.56578 403.53779 410.24378 415.71778">ideas,</tspan></text>
<text xml:space="preserve" transform="matrix(.75 0 0 .75 36 609.7025)" font-size="14" font-family="Calibri"><tspan y="13.589844" x="422.3838 427.8578 435.2078 442.5578 449.9078 457.2858 462.17179 466.8618">support,</tspan></text>
<text xml:space="preserve" transform="matrix(.75 0 0 .75 36 609.7025)" font-size="14" font-family="Calibri"><tspan y="13.589844" x="473.5371 480.2431 487.5931">and</tspan></text>
<text xml:space="preserve" transform="matrix(.75 0 0 .75 36 609.7025)" font-size="14" font-family="Calibri"><tspan y="13.589844" x="498.11915 502.80915 510.15916 517.5372 524.88717 531.48117 538.7178">thought</tspan></text>
<text xml:space="preserve" transform="matrix(.75 0 0 .75 36 609.7025)" font-size="14" font-family="Calibri"><tspan y="13.589844" x="546.57229 552.376 559.75399 566.88186 573.06838 579.9453 586.2873 589.4933 596.84329">conveying</tspan></text>
<text xml:space="preserve" transform="matrix(.75 0 0 .75 36 609.7025)" font-size="14" font-family="Calibri"><tspan y="13.589844" x="606.60549 612.07949 619.42947 626.7794 630.1254 637.0974 643.0194 647.7094">subjects</tspan></text>
<text fill="#1c4587" xml:space="preserve" transform="matrix(.75 0 0 .75 36 637.3667)" font-size="16" font-family="Calibri" font-weight="bold"><tspan y="15.53125" x="0 9.008 16.816002 23.584002 31.392003 39.992189 49.688188 60.232187">RELEVANT</tspan></text>
<text fill="#1c4587" xml:space="preserve" transform="matrix(.75 0 0 .75 36 637.3667)" font-size="16" font-family="Calibri" font-weight="bold"><tspan y="15.53125" x="71.765628 79.57362 88.389629 96.90163 104.709629 113.71763 117.98963 125.79763 136.34163 144.80564">EXPERIENCE</tspan></text>
<text xml:space="preserve" transform="matrix(.75 0 0 .75 36 653.1748)" font-size="14" font-family="Calibri" font-weight="bold"><tspan y="13.589844" x="0 6.8320009 12.926758 19.968758 25.820759 33.33876 38.196763 41.640764 48.131837">Executive</tspan></text>
<text xml:space="preserve" transform="matrix(.75 0 0 .75 36 653.1748)" font-size="14" font-family="Calibri" font-weight="bold"><tspan y="13.589844" x="58.344728 66.19873 73.73073 80.64673 85.43555">Board</tspan></text>
<text xml:space="preserve" transform="matrix(.75 0 0 .75 36 653.1748)" font-size="14" font-family="Calibri" font-weight="bold"><tspan y="13.589844" x="96.11328 103.56128 108.38379 115.42579 121.01179 124.45579 131.97379 139.0158 146.39844">President</tspan></text>
<text xml:space="preserve" transform="matrix(.75 0 0 .75 36 653.1748)" font-size="14" font-family="Calibri"><tspan y="13.589844" x="596.78909 601.25509 607.96109 615.31106">Jan.</tspan></text>
<text xml:space="preserve" transform="matrix(.75 0 0 .75 36 653.1748)" font-size="14" font-family="Calibri"><tspan y="13.589844" x="622.0137 629.1117 636.2097 643.30776">2021</tspan></text>
<text xml:space="preserve" transform="matrix(.75 0 0 .75 36 653.1748)" font-size="14" font-family="Calibri"><tspan y="13.589844" x="653.5615">&#x2013;</tspan></text>
<text xml:space="preserve" transform="matrix(.75 0 0 .75 36 653.1748)" font-size="14" font-family="Calibri"><tspan y="13.589844" x="663.6992 675.6692 682.11526">May</tspan></text>
<text xml:space="preserve" transform="matrix(.75 0 0 .75 36 653.1748)" font-size="14" font-family="Calibri"><tspan y="13.589844" x="691.6172 698.7152 705.81326 712.91128">2023</tspan></text>
<text fill="#1c4587" xml:space="preserve" transform="matrix(.75 0 0 .75 36 667.0069)" font-size="14" font-family="Calibri" font-style="italic"><tspan y="13.589844" x="0 8.106001 11.312001 14.518002 17.724003 24.920002 32.116 37.871095">Alliance</tspan></text>
<text fill="#1c4587" xml:space="preserve" transform="matrix(.75 0 0 .75 36 667.0069)" font-size="14" font-family="Calibri" font-style="italic"><tspan y="13.589844" x="47.72168 54.90368">of</tspan></text>
<text fill="#1c4587" xml:space="preserve" transform="matrix(.75 0 0 .75 36 667.0069)" font-size="14" font-family="Calibri" font-style="italic"><tspan y="13.589844" x="62.34375 68.22375 75.41975 80.10975 83.31575">Latin</tspan></text>
<text fill="#1c4587" xml:space="preserve" transform="matrix(.75 0 0 .75 36 667.0069)" font-size="14" font-family="Calibri" font-style="italic"><tspan y="13.589844" x="93.69336 101.79936 112.87336 119.56536 124.36736 127.573368 133.30078 140.49678">American</tspan></text>
<text fill="#1c4587" xml:space="preserve" transform="matrix(.75 0 0 .75 36 667.0069)" font-size="14" font-family="Calibri" font-style="italic"><tspan y="13.589844" x="150.8623 157.1903 161.88031 169.07631 176.27231 182.96431 190.02539 194.7154">Students</tspan></text>
<text fill="#1c4587" xml:space="preserve" transform="matrix(.75 0 0 .75 36 667.0069)" font-size="14" font-family="Calibri"><tspan y="13.589844" x="203.32813">|</tspan></text>
<text fill="#1c4587" xml:space="preserve" transform="matrix(.75 0 0 .75 36 667.0069)" font-size="14" font-family="Calibri"><tspan y="13.589844" x="212.93946 222.36145 229.71146 236.68346 243.65546 251.00547">Queens</tspan></text>
<text fill="#1c4587" xml:space="preserve" transform="matrix(.75 0 0 .75 36 667.0069)" font-size="14" font-family="Calibri"><tspan y="13.589844" x="259.64259 267.10459 274.48258 277.68858 280.89457 287.86659 294.35548">College</tspan></text>
<text xml:space="preserve" transform="matrix(.75 0 0 .75 36 680.839)" font-size="14" font-family="ArialMT"><tspan y="13.589844" x="24">&#x25cf;</tspan></text>
<text xml:space="preserve" transform="matrix(.75 0 0 .75 36 680.839)" font-size="14" font-family="Calibri"><tspan y="13.589844" x="48 55.462 62.840005 70.19 75.521488 80.21149 85.09749 92.44749 98.369487 102.90625 109.87825">Constructed</tspan></text>
<text xml:space="preserve" transform="matrix(.75 0 0 .75 36 680.839)" font-size="14" font-family="Calibri"><tspan y="13.589844" x="120.39258">a</tspan></text>
<text xml:space="preserve" transform="matrix(.75 0 0 .75 36 680.839)" font-size="14" font-family="Calibri"><tspan y="13.589844" x="130.26367 136.06739 143.44539 150.7954 156.2694 159.47539 164.8125 169.35157 176.32357 183.54297">consistent</tspan></text>
<text xml:space="preserve" transform="matrix(.75 0 0 .75 36 680.839)" font-size="14" font-family="Calibri"><tspan y="13.589844" x="191.39746 201.27539 208.6534 213.5394 219.9094 224.1794 227.38539 234.7168">workflow</tspan></text>
<text xml:space="preserve" transform="matrix(.75 0 0 .75 36 680.839)" font-size="14" font-family="Calibri"><tspan y="13.589844" x="247.88965 257.89967 261.10566 265.79566">with</tspan></text>
<text xml:space="preserve" transform="matrix(.75 0 0 .75 36 680.839)" font-size="14" font-family="Calibri"><tspan y="13.589844" x="276.3203 280.24415 287.21614 290.42213 293.6281 300.96388">fellow</tspan></text>
<text xml:space="preserve" transform="matrix(.75 0 0 .75 36 680.839)" font-size="14" font-family="Calibri"><tspan y="13.589844" x="314.13673 320.96873 326.667 333.63899 339.56098 346.91099 351.60099 354.80699 360.99708">Executive</tspan></text>
<text xml:space="preserve" transform="matrix(.75 0 0 .75 36 680.839)" font-size="14" font-family="Calibri"><tspan y="13.589844" x="371.12794 378.74394 386.12193 392.8279 397.52149">Board</tspan></text>
<text xml:space="preserve" transform="matrix(.75 0 0 .75 36 680.839)" font-size="14" font-family="Calibri"><tspan y="13.589844" x="408.042 419.228 426.2 437.38603 444.73603 451.708 456.3379">members</tspan></text>
<text xml:space="preserve" transform="matrix(.75 0 0 .75 36 680.839)" font-size="14" font-family="Calibri"><tspan y="13.589844" x="464.97853 472.32853 477.80253 481.0085 488.35853">using</tspan></text>
<text xml:space="preserve" transform="matrix(.75 0 0 .75 36 680.839)" font-size="14" font-family="Calibri"><tspan y="13.589844" x="498.1328 506.7428 509.9488 515.4228 521.2383 528.6163 533.31057">Discord</tspan></text>
<text xml:space="preserve" transform="matrix(.75 0 0 .75 36 680.839)" font-size="14" font-family="Calibri"><tspan y="13.589844" x="543.83108 550.53707">as</tspan></text>
<text xml:space="preserve" transform="matrix(.75 0 0 .75 36 680.839)" font-size="14" font-family="Calibri"><tspan y="13.589844" x="559.17776">a</tspan></text>
<text xml:space="preserve" transform="matrix(.75 0 0 .75 36 680.839)" font-size="14" font-family="Calibri"><tspan y="13.589844" x="569.0488 575.37686 578.5828 583.4688 588.1588 595.5088 602.2148">virtual</tspan></text>
<text xml:space="preserve" transform="matrix(.75 0 0 .75 36 680.839)" font-size="14" font-family="Calibri"><tspan y="13.589844" x="608.5947 615.9447 619.1507 625.73928 630.42929 634.4072 641.7852 646.6712">platform</tspan></text>
<text xml:space="preserve" transform="matrix(.75 0 0 .75 36 680.839)" font-size="14" font-family="Calibri"><tspan y="13.589844" x="661.01956 665.57229">to</tspan></text>
<text xml:space="preserve" transform="matrix(.75 0 0 .75 36 680.839)" font-size="14" font-family="Calibri"><tspan y="13.589844" x="676.1201 683.4701 686.6761 692.1501 698.0721 705.42208 710.89608">discuss</tspan></text>
<text xml:space="preserve" transform="matrix(.75 0 0 .75 36 694.6711)" font-size="14" font-family="Calibri"><tspan y="13.589844" x="48 53.922 57.128004 64.478008">club</tspan></text>
<text xml:space="preserve" transform="matrix(.75 0 0 .75 36 694.6711)" font-size="14" font-family="Calibri"><tspan y="13.589844" x="75.00879 81.98079 89.09766 95.42566 98.63166 103.28906 110.66706 118.01706 129.20307 136.17507 143.40235 148.09235">environment,</tspan></text>
<text xml:space="preserve" transform="matrix(.75 0 0 .75 36 694.6711)" font-size="14" font-family="Calibri"><tspan y="13.589844" x="154.75 161.64746 167.83399 174.80599 182.02539 186.7154 192.18939">events,</tspan></text>
<text xml:space="preserve" transform="matrix(.75 0 0 .75 36 694.6711)" font-size="14" font-family="Calibri"><tspan y="13.589844" x="198.84864 206.19864 212.90464 220.25464 227.22664 232.1875 242.06543 249.44344 254.32944 260.69944">paperwork,</tspan></text>
<text xml:space="preserve" transform="matrix(.75 0 0 .75 36 694.6711)" font-size="14" font-family="Calibri"><tspan y="13.589844" x="267.35157 274.05757 281.40757">and</tspan></text>
<text xml:space="preserve" transform="matrix(.75 0 0 .75 36 694.6711)" font-size="14" font-family="Calibri"><tspan y="13.589844" x="291.9336 301.78419 308.23048 314.4375">ways</tspan></text>
<text xml:space="preserve" transform="matrix(.75 0 0 .75 36 694.6711)" font-size="14" font-family="Calibri"><tspan y="13.589844" x="323.07814 327.63087">to</tspan></text>
<text xml:space="preserve" transform="matrix(.75 0 0 .75 36 694.6711)" font-size="14" font-family="Calibri"><tspan y="13.589844" x="338.1787 343.98243 351.3604 354.5664 357.7724 364.4784 371.8284 379.2064 383.8291 390.40528 394.94435">collaborate</tspan></text>
<text xml:space="preserve" transform="matrix(.75 0 0 .75 36 694.6711)" font-size="14" font-family="Calibri"><tspan y="13.589844" x="405.0752 409.0537 416.4317">for</tspan></text>
<text xml:space="preserve" transform="matrix(.75 0 0 .75 36 694.6711)" font-size="14" font-family="Calibri"><tspan y="13.589844" x="424.48243 431.37989 437.5664 444.5384 451.7578 456.4478">events</tspan></text>
<text xml:space="preserve" transform="matrix(.75 0 0 .75 36 708.5032)" font-size="14" font-family="ArialMT"><tspan y="13.589844" x="24">&#x25cf;</tspan></text>
<text xml:space="preserve" transform="matrix(.75 0 0 .75 36 708.5032)" font-size="14" font-family="Calibri"><tspan y="13.589844" x="48 54.832 62.182 65.388 72.094 76.799808 83.27344 90.24544">Enlarged</tspan></text>
<text xml:space="preserve" transform="matrix(.75 0 0 .75 36 708.5032)" font-size="14" font-family="Calibri"><tspan y="13.589844" x="100.759769 105.44977 112.79977">the</tspan></text>
<text xml:space="preserve" transform="matrix(.75 0 0 .75 36 708.5032)" font-size="14" font-family="Calibri"><tspan y="13.589844" x="122.93555 128.85755 132.06354 139.41355">club</tspan></text>
<text xml:space="preserve" transform="matrix(.75 0 0 .75 36 708.5032)" font-size="14" font-family="Calibri"><tspan y="13.589844" x="149.94434 155.74805 163.12606 174.31206 185.49806 192.84807 200.19808 203.40407 208.09407">community</tspan></text>
<text xml:space="preserve" transform="matrix(.75 0 0 .75 36 708.5032)" font-size="14" font-family="Calibri"><tspan y="13.589844" x="217.61328 224.96329 232.3413 239.6913 247.0413 250.2473 256.85157 261.54158 264.74757 272.12556">population</tspan></text>
<text xml:space="preserve" transform="matrix(.75 0 0 .75 36 708.5032)" font-size="14" font-family="Calibri"><tspan y="13.589844" x="282.65724 289.94435">by</tspan></text>
<text xml:space="preserve" transform="matrix(.75 0 0 .75 36 708.5032)" font-size="14" font-family="Calibri"><tspan y="13.589844" x="299.4463 306.54429 313.64228">40+</tspan></text>
<text xml:space="preserve" transform="matrix(.75 0 0 .75 36 708.5032)" font-size="14" font-family="Calibri"><tspan y="13.589844" x="323.7754 334.9614 341.9334 353.11943 360.46943 367.4414 372.0713">members</tspan></text>
<text xml:space="preserve" transform="matrix(.75 0 0 .75 36 708.5032)" font-size="14" font-family="Calibri"><tspan y="13.589844" x="380.7119 383.9179 395.1039 402.45393 405.6599 412.6319 423.8179 430.78993 438.01759 442.70759 445.91358 453.26359">implementing</tspan></text>
<text xml:space="preserve" transform="matrix(.75 0 0 .75 36 708.5032)" font-size="14" font-family="Calibri"><tspan y="13.589844" x="463.03028 468.91029 475.4922 480.1822 483.38819 490.7382">Latino</tspan></text>
<text xml:space="preserve" transform="matrix(.75 0 0 .75 36 708.5032)" font-size="14" font-family="Calibri"><tspan y="13.589844" x="501.29786 508.75987 516.10989 519.31588 524.00588 531.35586 536.07229">Culture</tspan></text>
<text xml:space="preserve" transform="matrix(.75 0 0 .75 36 708.5032)" font-size="14" font-family="Calibri"><tspan y="13.589844" x="546.2031 552.71096 558.89749 565.86947 573.08889 577.7789">Events</tspan></text>
<text xml:space="preserve" transform="matrix(.75 0 0 .75 36 708.5032)" font-size="14" font-family="Calibri"><tspan y="13.589844" x="586.41897 593.12496 600.4749">and</tspan></text>
<text xml:space="preserve" transform="matrix(.75 0 0 .75 36 708.5032)" font-size="14" font-family="Calibri"><tspan y="13.589844" x="611.001 618.35098 623.0117 630.333 636.661 639.867 647.217 650.423 657.77297">providing</tspan></text>
<text xml:space="preserve" transform="matrix(.75 0 0 .75 36 708.5032)" font-size="14" font-family="Calibri"><tspan y="13.589844" x="667.54788 674.8978 678.1038 684.6978 687.9038 692.4375 699.1435">digital</tspan></text>
<text xml:space="preserve" transform="matrix(.75 0 0 .75 36 722.3352)" font-size="14" font-family="Calibri"><tspan y="13.589844" x="48 53.80371 61.18171 68.41211 72.95117 79.92317 87.14258">content</tspan></text>
<text xml:space="preserve" transform="matrix(.75 0 0 .75 36 722.3352)" font-size="14" font-family="Calibri"><tspan y="13.589844" x="94.99707 99.549808">to</tspan></text>
<text xml:space="preserve" transform="matrix(.75 0 0 .75 36 722.3352)" font-size="14" font-family="Calibri"><tspan y="13.589844" x="110.09766 117.475658 124.82565">our</tspan></text>
<text xml:space="preserve" transform="matrix(.75 0 0 .75 36 722.3352)" font-size="14" font-family="Calibri"><tspan y="13.589844" x="132.88184 138.35584 145.73384 151.65584 154.86183 161.56783">social</tspan></text>
<text xml:space="preserve" transform="matrix(.75 0 0 .75 36 722.3352)" font-size="14" font-family="Calibri"><tspan y="13.589844" x="167.95703 179.14304 186.11504 193.46504 196.67104">media</tspan></text>
<text xml:space="preserve" transform="matrix(.75 0 0 .75 36 722.3352)" font-size="14" font-family="Calibri"><tspan y="13.589844" x="206.5459 213.8959 221.27391 226.74791 229.9539 234.6439 237.8499 245.2279 252.57791 255.7839 263.1339">positioning</tspan></text>
<text xml:space="preserve" transform="matrix(.75 0 0 .75 36 722.3352)" font-size="14" font-family="Calibri"><tspan y="13.589844" x="272.93653 280.3145 287.66453">our</tspan></text>
<text xml:space="preserve" transform="matrix(.75 0 0 .75 36 722.3352)" font-size="14" font-family="Calibri"><tspan y="13.589844" x="295.7207 301.6427 304.8487 312.1987">club</tspan></text>
<text xml:space="preserve" transform="matrix(.75 0 0 .75 36 722.3352)" font-size="14" font-family="Calibri"><tspan y="13.589844" x="322.7295 329.4355">as</tspan></text>
<text xml:space="preserve" transform="matrix(.75 0 0 .75 36 722.3352)" font-size="14" font-family="Calibri"><tspan y="13.589844" x="338.07618 345.45417 352.80418">one</tspan></text>
<text xml:space="preserve" transform="matrix(.75 0 0 .75 36 722.3352)" font-size="14" font-family="Calibri"><tspan y="13.589844" x="362.9453 370.3233">of</tspan></text>
<text xml:space="preserve" transform="matrix(.75 0 0 .75 36 722.3352)" font-size="14" font-family="Calibri"><tspan y="13.589844" x="377.76564 382.45564 389.80564">the</tspan></text>
<text xml:space="preserve" transform="matrix(.75 0 0 .75 36 722.3352)" font-size="14" font-family="Calibri"><tspan y="13.589844" x="399.9414 403.1474 409.8534 414.5498 421.02345 427.99543 433.30763">largest</tspan></text>
<text xml:space="preserve" transform="matrix(.75 0 0 .75 36 722.3352)" font-size="14" font-family="Calibri"><tspan y="13.589844" x="441.1621 447.8681 455.2181">and</tspan></text>
<text xml:space="preserve" transform="matrix(.75 0 0 .75 36 722.3352)" font-size="14" font-family="Calibri"><tspan y="13.589844" x="465.74415 476.93016 484.30815 489.6289">most</tspan></text>
<text xml:space="preserve" transform="matrix(.75 0 0 .75 36 722.3352)" font-size="14" font-family="Calibri"><tspan y="13.589844" x="497.4834 504.8334 509.49415 516.87216 528.0581 531.2641 538.6141 545.58609 552.8203">prominent</tspan></text>
<text xml:space="preserve" transform="matrix(.75 0 0 .75 36 722.3352)" font-size="14" font-family="Calibri"><tspan y="13.589844" x="560.6748 568.0528 572.7471 579.07717 585.78317 593.1331 596.3391 601.6494 608.2256 612.9156 616.1216 623.4996 630.84957">organizations</tspan></text>
<text xml:space="preserve" transform="matrix(.75 0 0 .75 36 722.3352)" font-size="14" font-family="Calibri"><tspan y="13.589844" x="639.50686 646.8848">on</tspan></text>
<text xml:space="preserve" transform="matrix(.75 0 0 .75 36 722.3352)" font-size="14" font-family="Calibri"><tspan y="13.589844" x="657.41018 663.21389 669.91989 681.10586 688.4558 695.8058">campus</tspan></text>
</svg>
